<?xml version="1.0" encoding="UTF-8"?>
<svg id="Capa_1" data-name="Capa 1" xmlns="http://www.w3.org/2000/svg" xmlns:xlink="http://www.w3.org/1999/xlink" version="1.1" viewBox="0 0 1444 449">
  <defs>
    <style>
      .cls-1 {
        fill: #932d46;
      }

      .cls-1, .cls-2, .cls-3, .cls-4, .cls-5, .cls-6, .cls-7, .cls-8, .cls-9, .cls-10 {
        stroke-width: 0px;
      }

      .cls-2 {
        fill: #53565a;
      }

      .cls-3 {
        fill: #ffc800;
      }

      .cls-4 {
        fill: url(#linear-gradient);
      }

      .cls-5 {
        fill: #d80025;
      }

      .cls-11 {
        fill: none;
        stroke: #53565a;
        stroke-miterlimit: 10;
      }

      .cls-6 {
        fill: #003189;
      }

      .cls-7 {
        fill: url(#linear-gradient-4);
      }

      .cls-8 {
        fill: url(#linear-gradient-2);
      }

      .cls-9 {
        fill: url(#linear-gradient-3);
      }

      .cls-10 {
        fill: #757871;
      }
    </style>
    <linearGradient id="linear-gradient" x1="1069.9" y1="94.2" x2="1044.6" y2="68.9" gradientUnits="userSpaceOnUse">
      <stop offset="0" stop-color="#e3003a"/>
      <stop offset=".3" stop-color="#de0237"/>
      <stop offset=".6" stop-color="#d20b30"/>
      <stop offset=".9" stop-color="#bd1924"/>
      <stop offset="1" stop-color="#b51f1f"/>
    </linearGradient>
    <linearGradient id="linear-gradient-2" x1="15343" y1="-1812.6" x2="15317.7" y2="-1837.9" gradientTransform="translate(16496.8 -1634.5) rotate(-180)" xlink:href="#linear-gradient"/>
    <linearGradient id="linear-gradient-3" x1="1018.5" y1="230.6" x2="1071" y2="177.3" gradientUnits="userSpaceOnUse">
      <stop offset="0" stop-color="#f29100"/>
      <stop offset="1" stop-color="#ffcb00"/>
    </linearGradient>
    <linearGradient id="linear-gradient-4" x1="1204.4" y1="43.7" x2="1151.1" y2="96.9" gradientUnits="userSpaceOnUse">
      <stop offset="0" stop-color="#005ca8"/>
      <stop offset="1" stop-color="#008fd6"/>
    </linearGradient>
  </defs>
  <g>
    <g>
      <path class="cls-2" d="M820.2,292.1h-21.8v59.5h13.5v-16.5h7c14.1,0,25.3-8.6,25.3-21.4v-.2c0-12.6-10.8-21.4-24.1-21.4ZM831.4,313.9c0,4.9-6.5,7.6-12,7.6h-7.4v-15.9h7.2c6,0,12.2,2.9,12.2,8.1v.2Z"/>
      <path class="cls-2" d="M1400.4,292.1h-12.2l-24.5,59.5h13.9l5.1-12.4h22.8l5.1,12.4h14.2l-24.5-59.5ZM1387.7,326.8l6.5-16.6,6.5,16.6h-13.1Z"/>
      <rect class="cls-2" x="1341.9" y="292.1" width="13.5" height="59.5"/>
      <path class="cls-2" d="M1322,321.1c4.5-3,6.4-7,6.4-12.5v-.2c0-4.1-1.3-7.9-4-10.7-3.4-3.5-8.5-5.7-15-5.7h-25.8v59.5h26.4c13.7,0,21.9-5.4,21.9-15.9v-.2c0-6.9-3.2-11.4-10-14.4ZM1297.2,305.6h10.4c2.8,0,7.3.3,7.3,5v.2c0,3.7-2.6,4.9-8.1,4.9h-9.6v-10ZM1318.4,334.1c0,3.8-3,5.1-8.3,5.1h-12.9v-11.2h12.5c5.6,0,8.7,2.1,8.7,5.9v.2Z"/>
      <polygon class="cls-2" points="1242.2 316.1 1227.9 292.1 1214.2 292.1 1214.2 351.6 1227.7 351.6 1227.7 316 1241.6 339.2 1242.6 339.2 1257.7 315.7 1257.7 351.6 1271.3 351.6 1271.3 292.1 1256.6 292.1 1242.2 316.1"/>
      <path class="cls-2" d="M1174.2,291.8c-17,0-30.1,13.5-30.1,30.7v.2c0,17.4,12.7,30.5,30,30.5s30.1-13.5,30.1-30.7v-.2c0-17.4-12.7-30.5-30-30.5ZM1190,322.7c0,10-6.9,17.5-16.1,17.5s-16.3-7.6-16.3-17.7v-.2c0-10,6.9-17.5,16.1-17.5s16.3,7.6,16.3,17.7v.2Z"/>
      <polygon class="cls-2" points="1112.9 292.1 1099.3 292.1 1099.3 351.6 1140.6 351.6 1140.6 339.2 1112.9 339.2 1112.9 292.1"/>
      <path class="cls-2" d="M1061.4,291.8c-17,0-30.4,13.5-30.4,30.7v.2c0,17.4,13,30.5,30.2,30.5s30.4-13.5,30.4-30.7v-.2c0-17.4-13-30.5-30.2-30.5ZM1077,322.7c0,10-6.3,17.5-15.5,17.5s-15.7-7.6-15.7-17.7v-.2c0-10,6.3-17.5,15.5-17.5s15.7,7.6,15.7,17.7v.2Z"/>
      <path class="cls-2" d="M1018.2,333.5c-4.5,4.2-8,6.7-14.1,6.7-8.9,0-15.4-7.6-15.4-17.7v-.2c0-10,6.5-17.5,15.4-17.5s9.1,2,13.8,6.4l.4.4,8.6-10.3-.4-.4c-6.2-6.3-12.7-9.2-22.1-9.2-17,0-29.3,13.2-29.3,30.7v.2c0,8.3,2.5,16,7.9,21.7,5.4,5.7,12.7,8.9,20.7,8.9s16.5-3.1,23.3-10.6l.3-.4-8.7-9.1-.5.4Z"/>
      <path class="cls-2" d="M936.9,291.8c-17,0-30.7,13.5-30.7,30.7v.2c0,17.4,13.3,30.5,30.5,30.5s30.7-13.5,30.7-30.7v-.2c0-17.4-13.3-30.5-30.5-30.5ZM953.9,322.7c0,10-7.5,17.5-16.7,17.5s-16.9-7.6-16.9-17.7v-.2c0-10,7.5-17.5,16.7-17.5s16.9,7.6,16.9,17.7v.2Z"/>
      <path class="cls-2" d="M887.5,330.8c7.5-3.2,11.6-9.3,11.6-18v-.2c0-5.6-1.7-10.7-4.9-14.1-3.8-4-9.6-6.4-16.7-6.4h-26.1v59.5h13v-17.7h9.2l12,17.7h15.8l-13.9-20.8ZM885,313.4c0,4.7-2.8,8.1-8.3,8.1h-12.3v-15.9h12.1c5.8,0,8.5,2.7,8.5,7.6v.2Z"/>
    </g>
    <g>
      <polygon class="cls-4" points="1071.5 42 1071.5 95.8 1017.7 95.8 1071.5 42"/>
      <polygon class="cls-8" points="1152.2 230.4 1152.2 176.6 1206.1 176.6 1152.2 230.4"/>
      <polygon class="cls-9" points="1152.2 176.6 1152.2 230.4 1017.7 230.4 1017.7 95.8 1071.5 95.8 1071.5 176.6 1152.2 176.6"/>
      <polygon class="cls-7" points="1071.5 95.8 1071.5 42 1206.1 42 1206.1 176.6 1152.2 176.6 1152.2 95.8 1071.5 95.8"/>
    </g>
    <g>
      <path class="cls-10" d="M798.7,383.8h12.8v2.7h-9.7v4.5h8.6v2.7h-8.6v4.6h9.9v2.7h-12.9v-17.2Z"/>
      <path class="cls-10" d="M819.3,392.2l-6-8.5h3.6l4.3,6.2,4.3-6.2h3.5l-6,8.4,6.2,8.8h-3.6l-4.5-6.5-4.6,6.5h-3.5l6.3-8.8Z"/>
      <path class="cls-10" d="M831.4,383.8h6.8c4,0,6.5,2.3,6.5,5.8h0c0,3.9-3.1,5.9-6.9,5.9h-3.4v5.5h-3v-17.2ZM837.9,392.7c2.3,0,3.7-1.3,3.7-3.1h0c0-2.1-1.5-3.1-3.7-3.1h-3.5v6.2h3.5Z"/>
      <path class="cls-10" d="M846.2,392.4h0c0-4.9,3.7-9,9-9s9,4,9,8.9h0c0,4.9-3.7,9-9,9s-9-4-9-8.9ZM861,392.4h0c0-3.4-2.4-6.2-5.9-6.2s-5.8,2.7-5.8,6.1h0c0,3.4,2.4,6.2,5.9,6.2s5.8-2.7,5.8-6.1Z"/>
      <path class="cls-10" d="M867,383.8h7.7c2.2,0,3.9.6,5,1.7.9.9,1.4,2.2,1.4,3.7h0c0,2.9-1.7,4.6-4.1,5.3l4.6,6.5h-3.6l-4.2-6h-3.8v6h-3v-17.2ZM874.5,392.3c2.2,0,3.5-1.1,3.5-2.9h0c0-1.9-1.3-2.9-3.6-2.9h-4.4v5.8h4.4Z"/>
      <path class="cls-10" d="M888.1,386.6h-5.5v-2.8h14v2.8h-5.5v14.4h-3.1v-14.4Z"/>
      <path class="cls-10" d="M902.8,383.6h2.8l7.6,17.3h-3.2l-1.7-4.2h-8.1l-1.8,4.2h-3.1l7.6-17.3ZM907.1,394.1l-3-6.9-3,6.9h5.9Z"/>
      <path class="cls-10" d="M913.5,392.4h0c0-4.9,3.7-9,8.9-9s5.1,1.1,6.7,2.7l-1.9,2.2c-1.4-1.3-2.9-2.1-4.8-2.1-3.3,0-5.7,2.7-5.7,6.1h0c0,3.4,2.4,6.2,5.7,6.2s3.5-.9,4.9-2.2l1.9,2c-1.8,1.9-3.8,3.1-7,3.1-5,0-8.8-3.9-8.8-8.9Z"/>
      <path class="cls-10" d="M931.7,383.8h3v17.2h-3v-17.2Z"/>
      <path class="cls-10" d="M937.7,392.4h0c0-4.9,3.7-9,9-9s9,4,9,8.9h0c0,4.9-3.7,9-9,9s-9-4-9-8.9ZM952.5,392.4h0c0-3.4-2.4-6.2-5.9-6.2s-5.8,2.7-5.8,6.1h0c0,3.4,2.4,6.2,5.9,6.2s5.8-2.7,5.8-6.1Z"/>
      <path class="cls-10" d="M958.5,383.8h2.8l9.2,11.9v-11.9h3v17.2h-2.5l-9.5-12.2v12.2h-3v-17.2Z"/>
      <path class="cls-10" d="M977,383.8h12.8v2.7h-9.7v4.5h8.6v2.7h-8.6v4.6h9.9v2.7h-12.9v-17.2Z"/>
      <path class="cls-10" d="M991.5,398.5l1.8-2.2c1.6,1.4,3.3,2.2,5.4,2.2s3.1-.9,3.1-2.2h0c0-1.3-.7-1.9-3.9-2.7-3.7-.9-5.7-2-5.7-5.1h0c0-3,2.5-5,5.9-5s4.5.8,6.2,2.2l-1.6,2.3c-1.6-1.2-3.1-1.8-4.7-1.8s-2.8.9-2.8,2h0c0,1.4.8,2,4.1,2.8,3.6.9,5.5,2.2,5.5,5h0c0,3.3-2.5,5.2-6.1,5.2s-5.1-.9-7.2-2.8Z"/>
      <path class="cls-10" d="M1018.3,386.6h-5.5v-2.8h14v2.8h-5.5v14.4h-3.1v-14.4Z"/>
      <path class="cls-10" d="M1028.8,393.7v-9.9h3v9.8c0,3.2,1.6,4.9,4.4,4.9s4.3-1.6,4.3-4.8v-9.9h3v9.8c0,5.1-2.9,7.7-7.4,7.7s-7.3-2.6-7.3-7.6Z"/>
      <path class="cls-10" d="M1046.9,383.8h7.7c2.2,0,3.9.6,5,1.7.9.9,1.4,2.2,1.4,3.7h0c0,2.9-1.7,4.6-4.1,5.3l4.6,6.5h-3.6l-4.2-6h-3.8v6h-3v-17.2ZM1054.3,392.3c2.2,0,3.5-1.1,3.5-2.9h0c0-1.9-1.3-2.9-3.6-2.9h-4.4v5.8h4.4Z"/>
      <path class="cls-10" d="M1064,383.8h3v17.2h-3v-17.2Z"/>
      <path class="cls-10" d="M1069.6,398.5l1.8-2.2c1.6,1.4,3.3,2.2,5.4,2.2s3.1-.9,3.1-2.2h0c0-1.3-.7-1.9-3.9-2.7-3.7-.9-5.7-2-5.7-5.1h0c0-3,2.5-5,5.9-5s4.5.8,6.2,2.2l-1.6,2.3c-1.6-1.2-3.1-1.8-4.7-1.8s-2.8.9-2.8,2h0c0,1.4.8,2,4.1,2.8,3.6.9,5.5,2.2,5.5,5h0c0,3.3-2.5,5.2-6.1,5.2s-5.1-.9-7.2-2.8Z"/>
      <path class="cls-10" d="M1085.6,383.8h3.2l5.2,8.1,5.2-8.1h3.2v17.2h-3v-12.3l-5.4,8.1h0l-5.4-8.1v12.3h-3v-17.2Z"/>
      <path class="cls-10" d="M1105.3,392.4h0c0-4.9,3.7-9,9-9s9,4,9,8.9h0c0,4.9-3.7,9-9,9s-9-4-9-8.9ZM1120.1,392.4h0c0-3.4-2.4-6.2-5.9-6.2s-5.8,2.7-5.8,6.1h0c0,3.4,2.4,6.2,5.9,6.2s5.8-2.7,5.8-6.1Z"/>
      <path class="cls-10" d="M1132.8,383.8h3v17.2h-3v-17.2Z"/>
      <path class="cls-10" d="M1139.6,383.8h2.8l9.2,11.9v-11.9h3v17.2h-2.5l-9.5-12.2v12.2h-3v-17.2Z"/>
      <path class="cls-10" d="M1156.6,383.8h3.3l5.2,13.2,5.2-13.2h3.3l-7.2,17.3h-2.7l-7.2-17.3Z"/>
      <path class="cls-10" d="M1175.7,383.8h12.8v2.7h-9.7v4.5h8.6v2.7h-8.6v4.6h9.9v2.7h-12.9v-17.2Z"/>
      <path class="cls-10" d="M1191.3,383.8h7.7c2.2,0,3.9.6,5,1.7.9.9,1.4,2.2,1.4,3.7h0c0,2.9-1.7,4.6-4.1,5.3l4.6,6.5h-3.6l-4.2-6h-3.8v6h-3v-17.2ZM1198.8,392.3c2.2,0,3.5-1.1,3.5-2.9h0c0-1.9-1.3-2.9-3.6-2.9h-4.4v5.8h4.4Z"/>
      <path class="cls-10" d="M1207.1,398.5l1.8-2.2c1.6,1.4,3.3,2.2,5.4,2.2s3.1-.9,3.1-2.2h0c0-1.3-.7-1.9-3.9-2.7-3.7-.9-5.7-2-5.7-5.1h0c0-3,2.5-5,5.9-5s4.5.8,6.2,2.2l-1.6,2.3c-1.6-1.2-3.1-1.8-4.7-1.8s-2.8.9-2.8,2h0c0,1.4.8,2,4.1,2.8,3.6.9,5.5,2.2,5.5,5h0c0,3.3-2.5,5.2-6.1,5.2s-5.1-.9-7.2-2.8Z"/>
      <path class="cls-10" d="M1223.3,383.8h3v17.2h-3v-17.2Z"/>
      <path class="cls-10" d="M1229.3,392.4h0c0-4.9,3.7-9,9-9s9,4,9,8.9h0c0,4.9-3.7,9-9,9s-9-4-9-8.9ZM1244.1,392.4h0c0-3.4-2.4-6.2-5.9-6.2s-5.8,2.7-5.8,6.1h0c0,3.4,2.4,6.2,5.9,6.2s5.8-2.7,5.8-6.1ZM1239.8,378.5l2.7,1.2-3.1,2.4h-2.3l2.8-3.6Z"/>
      <path class="cls-10" d="M1250.1,383.8h2.8l9.2,11.9v-11.9h3v17.2h-2.5l-9.5-12.2v12.2h-3v-17.2Z"/>
      <path class="cls-10" d="M1275.2,383.8h3.2l5.2,8.1,5.2-8.1h3.2v17.2h-3v-12.3l-5.4,8.1h0l-5.4-8.1v12.3h-3v-17.2Z"/>
      <path class="cls-10" d="M1301.7,383.6h2.8l7.6,17.3h-3.2l-1.7-4.2h-8.1l-1.8,4.2h-3.1l7.6-17.3ZM1306.1,394.1l-3-6.9-3,6.9h5.9Z"/>
      <path class="cls-10" d="M1314.2,383.8h7.7c2.2,0,3.9.6,5,1.7.9.9,1.4,2.2,1.4,3.7h0c0,2.9-1.7,4.6-4.1,5.3l4.6,6.5h-3.6l-4.2-6h-3.8v6h-3v-17.2ZM1321.7,392.3c2.2,0,3.5-1.1,3.5-2.9h0c0-1.9-1.3-2.9-3.6-2.9h-4.4v5.8h4.4Z"/>
      <path class="cls-10" d="M1330.4,392.4h0c0-4.9,3.7-9,8.9-9s5.1,1.1,6.7,2.7l-1.9,2.2c-1.4-1.3-2.9-2.1-4.8-2.1-3.3,0-5.7,2.7-5.7,6.1h0c0,3.4,2.4,6.2,5.7,6.2s3.5-.9,4.9-2.2l1.9,2c-1.8,1.9-3.8,3.1-7,3.1-5,0-8.8-3.9-8.8-8.9Z"/>
      <path class="cls-10" d="M1354.5,383.6h2.8l7.6,17.3h-3.2l-1.7-4.2h-8.1l-1.8,4.2h-3.1l7.6-17.3ZM1358.8,394.1l-3-6.9-3,6.9h5.9Z"/>
      <path class="cls-10" d="M1373.5,383.8h6.8c4,0,6.5,2.3,6.5,5.8h0c0,3.9-3.1,5.9-6.9,5.9h-3.4v5.5h-3v-17.2ZM1380,392.7c2.3,0,3.7-1.3,3.7-3.1h0c0-2.1-1.5-3.1-3.7-3.1h-3.5v6.2h3.5Z"/>
      <path class="cls-10" d="M1393.4,383.6h2.8l7.6,17.3h-3.2l-1.7-4.2h-8.1l-1.8,4.2h-3.1l7.6-17.3ZM1397.8,394.1l-3-6.9-3,6.9h5.9Z"/>
      <path class="cls-10" d="M1406.1,383.8h3v17.2h-3v-17.2ZM1409.1,378.8l2.7,1.2-3.1,2.4h-2.3l2.8-3.6Z"/>
      <path class="cls-10" d="M1411.7,398.5l1.8-2.2c1.6,1.4,3.3,2.2,5.4,2.2s3.1-.9,3.1-2.2h0c0-1.3-.7-1.9-3.9-2.7-3.7-.9-5.7-2-5.7-5.1h0c0-3,2.5-5,5.9-5s4.5.8,6.2,2.2l-1.6,2.3c-1.6-1.2-3.1-1.8-4.7-1.8s-2.8.9-2.8,2h0c0,1.4.8,2,4.1,2.8,3.6.9,5.5,2.2,5.5,5h0c0,3.3-2.5,5.2-6.1,5.2s-5.1-.9-7.2-2.8Z"/>
    </g>
  </g>
  <g>
    <g>
      <path class="cls-1" d="M348.9,118.8c.4.4,1.1.6,1.8.3.1.3.4.6.7.7.2,0,.3,0,.5,0,.4,0,.8-.2,1.2-.5.5.7,1.6.8,2.8.8s1.4,0,2-.1c.3,0,.6,0,.8,0,1.5,0,2.5-.4,3.4-1.4.8.3,2.8.8,4.9-2.2.6-.2,3.7-1.3,3.2-4.7.5-.4,1.9-2,1.1-4,.1-.4.5-1.9-.3-2.6-.1-.3-.8-1.7-2-2-.7-.1-1.5.2-2.3.9-.1.1-.4.5-.6.8-.7.4-1,1.1-1.1,1.4-.6.3-.9.8-1,1.2-1-.2-2.1,0-3.4.7-.8-.6-1.8-1-2.8-1s0,0,0,0c-1.3,0-2.7.6-3.7,1.8-1.4,1.5-2.1,3.7-1.9,5.8-.3,0-.6,0-.8.2-.4.3-.7.8-.8,1.4h0s0,0,0,0c-.6,0-1.1.1-1.5.5-.7.7-.5,1.5-.1,1.8ZM364.3,108.2c1.4.5,2,2.1,2,2.1l.5-.2c0,0-.6-1.8-2.3-2.5,0,0,0,0,0,0,.2-.3.5-.8,1-.9.6-.1,1.5.2,3.1,2.2l.4-.3c-1.3-1.6-2.4-2.4-3.4-2.4.2-.3.4-.6.9-.8.7-.3,1.6,0,2.8.8l.3-.5c-1-.7-2-1-2.7-.9,0,0,0-.1.1-.1.6-.6,1.2-.9,1.8-.8,1,.2,1.6,1.7,1.6,1.7h0c0,0,0,.1,0,.1.5.4.3,1.7.1,2.2h0c0,.1,0,.2,0,.2.9,2-.9,3.5-1,3.5h-.1c0,.1,0,.3,0,.3.6,3.3-2.7,4.2-2.8,4.2h-.1s0,.1,0,.1c-1.7,2.4-3.4,2.4-4.2,2.2,1.4-2.2,1.4-5.3.1-7.9-.4-.7-.8-1.3-1.3-1.8,1.2-.6,2.3-.8,3.3-.4ZM349.5,117.4c.3-.3.8-.3,1-.3.2,0,.4,0,.5-.1,0,0,.2-.2.2-.4,0-.4.2-.8.5-1,.3-.2.7-.2,1,0l.5.4v-.7c0-.2,0-.3.1-.4.2-.2.6-.3,1-.2.2,0,1,.1,1.2.7l.2.7.3-.6c.3-.7,1-.9,1.5-.8.5,0,.9.4.9,1h.6c-.1-.9-.7-1.4-1.4-1.6-.1,0-.3,0-.4,0,.2-.9.7-3,2.4-3.4.3.3.6.8.8,1.3.8,2,.5,4.6-.7,6l.4.4c1.4-1.7,1.7-4.4.8-6.6-.6-1.5-1.7-2.5-3.1-2.6-1.1-.1-2.2.4-3.1,1.4-.8.9-1.4,2.2-1.5,3.6,0,0,0,.2,0,.3,0,0-.1,0-.2.1,0,0-.1.1-.2.2-.1-1.9.5-3.8,1.7-5.2.9-1,2.1-1.6,3.3-1.6h0c1.7,0,3.2,1,4.1,2.8,1.2,2.4,1.2,5.4-.2,7.4-.5,1-2.2,1.5-3.1,1.5-.2,0-.5,0-.9,0-1.3.1-3.8.3-4.3-.5h0c0-.1-.2-.6-.2-.6-.4.5-1,1-1.6.8-.2,0-.4-.3-.4-.6v-.6c0,0-.4.4-.4.4-.5.4-1.1.3-1.4,0-.3-.3-.2-.7.1-1.1ZM353.6,114.1c.2-1.3.6-2.4,1.4-3.3.8-.9,1.7-1.3,2.6-1.2.5,0,1,.2,1.4.5-1.9.8-2.4,3.3-2.5,4-.3.1-.6.3-.8.6-.3-.3-.8-.6-1.4-.6-.2,0-.4,0-.7,0Z"/>
      <path class="cls-1" d="M315.7,111.8c-.5,3.4,2.6,4.5,3.2,4.7,1.4,1.9,2.9,2.4,3.9,2.4s1.2-.2,1.4-.3c.5.1,1,.2,1.5.2s1.3-.1,1.8-.4c.2.2.4.3,1,.3.5,0,1.2,0,1.7-.3.2.2.5.3,1,.3.9,0,1.8,0,2.5-.5.2.1.4.2.7.2,1.4,0,2.8.1,4.1,0,.3,0,.6-.2.6-.4,0-.3,0-.6-.3-.7,0,0-.1,0-.2-.1,0,0-.2-.1-.2-.2,0,0,0,0,0,0,0,0,0-.2-.1-.2h0c-.4-.2-1-.3-1.5-.3-.2,0-.5,0-.7,0-.2-.5-.8-.9-1.4-.9,0,0-.1,0-.2,0,0,0,0,0,0-.1,0,0,0,0,0,0-.2-.3-.5-.4-.8-.5.2-2.1-.5-4.1-1.9-5.6-1-1.1-2.3-1.8-3.6-1.8,0,0,0,0-.1,0-1,0-2,.3-2.8,1-1.2-.7-2.4-.9-3.4-.7-.1-.3-.5-.9-1-1.2,0-.3-.4-1-1.1-1.4-.1-.3-.4-.7-.6-.8-.8-.8-1.5-1.1-2.3-.9-1.2.2-1.9,1.6-2,2-.7.7-.4,2.2-.3,2.6-.8,2,.6,3.6,1.1,4ZM334,115.4h0c0,.1.1.3.2.3.1,0,.3.1.5.1.4,0,.8.3.8.6v.2s.2,0,.2,0c.3,0,.6,0,.9.1.5,0,.9,0,1.3.2,0,0,0,0,0,0,0,0,0,0,0,.1.1.2.3.3.4.4,0,0,0,0,.1,0,0,0,.1.1.1.1h0s0,0-.1,0c-1.3.2-2.7.1-4.1,0-.3,0-.4,0-.4-.1v-.4c-.1,0-.5.3-.5.3-.6.5-1.5.6-2.4.6-.3,0-.6,0-.6-.2v-.4c0,0-.4.2-.4.2-.5.3-1,.3-1.7.4-.3,0-.5,0-.6-.2v-.3c0,0-.4.1-.4.1-.3.1-.7.2-1.1.3-1.4-1.4-1.9-3.9-1.2-6,.2-.5.4-1.1.9-1.6,1.8.5,2.3,2.9,2.5,3.7h-.4s0,.6,0,.6h2.6c.3-.1.5-.1.6,0,.3.2.5.4.8.4.2,0,.3,0,.5,0,.5,0,.9,0,1.2.3ZM326.7,110.1c.4-.3.8-.5,1.4-.5.8-.1,1.6.2,2.3.9,1.1,1,1.7,2.5,1.7,4,0,0-.1,0-.2-.2-.3-.2-.7-.2-1-.2h-1.7c-.1-.7-.7-3.3-2.5-4ZM328,107.8s0,0,0,0c1.2,0,2.3.5,3.3,1.6,1.2,1.3,1.9,3.3,1.7,5.2,0,0-.2,0-.3,0,0,0,0,0-.1,0,0-1.6-.7-3.4-1.9-4.5-.9-.8-1.8-1.2-2.8-1-1.5.2-2.7,1.3-3.3,3-.6,1.9-.4,4.5,1,6.3-.6,0-1.2,0-1.8-.2-1.3-2-1.4-5-.1-7.4.9-1.8,2.4-2.8,4.2-2.8ZM315.2,107.8c-.1-.5-.4-1.8.1-2.2h0s0-.1,0-.1c0,0,.6-1.5,1.6-1.7.5-.1,1.1.2,1.8.8,0,0,0,0,.1.1-.8,0-1.7.2-2.7.9l.3.5c1.1-.8,2.1-1,2.8-.8.4.2.7.5.9.8-1,0-2.1.8-3.4,2.4l.4.3c1.6-2,2.5-2.3,3.1-2.2.5.1.9.6,1,.9,0,0,0,0,0,0-1.7.6-2.3,2.4-2.3,2.5l.5.2s.6-1.6,2-2.1c.9-.4,2-.2,3.3.4-.5.5-1,1.1-1.3,1.8-1.3,2.5-1.2,5.7.1,7.9-.8.2-2.6.2-4.2-2.1h0c0,0-.1-.1-.1-.1-.1,0-3.5-.9-2.8-4.2v-.2s-.1-.1-.1-.1c0,0-1.9-1.5-1-3.5h0c0,0,0-.2,0-.2Z"/>
      <path class="cls-1" d="M342.6,116.5c0,.9-.1,1.9-.3,3h0c0,.1,0,.2,0,.2,0,0,.6.8,1.6,1.2h.3c0,.1,0-.2,0-.2,0-.1.3-2.7,0-5.4,3.4-1.1,4.5-4.5,4.8-6,.2-.9.1-.9,0-1h-.1c0,0-.1,0-.1,0-2.9,1.1-4.3,3.3-4.9,4.9-.2-.9-.5-1.6-.9-2.3,2.8-.3,5-2.7,5-5.6s-.7-3.1-1.8-4.1l1.4-1.7-2.6.3-.8-1.3-1.3.8-1.1-.9-.5,1.1-2.4-.9.6,1.9c-1.8,1.1-2.7,3-2.7,4.8,0,2.3,1.4,4.8,4.4,5.5.1.2.8,1.1,1.1,3.1-1-1.5-2.8-3.3-5.8-3.8h-.2s0,.2,0,.2c0,.2.6,1.8,1.3,2.9.9,1.4,2.5,3.1,4.9,3.4ZM344.3,114.3c.4-1.5,1.4-4,4.5-5.4-.2,1.3-1.2,4.8-4.6,5.8v-.4ZM346.4,100.1l-.5.6c-.2-.2-.5-.3-.8-.5l1.3-.2ZM347.6,105.2c0,2.3-1.5,4.2-3.6,4.8,3.3-4.5,1-8.2-.2-9.7,2.2.6,3.8,2.5,3.8,4.9ZM344.1,99.2l.5.9c-.4-.2-.9-.3-1.4-.4l.9-.5ZM342.1,99.2l.5.4s0,0,0,0c-.2,0-.5,0-.7,0l.2-.5ZM341,99.9c-.3,0-.6.2-.8.3l-.2-.7,1.1.4ZM337.5,105.2c0-2.1,1.2-4.3,3.9-4.9-1.2,1.4-3.6,5.2-.3,9.7-2.5-.7-3.6-2.8-3.6-4.8ZM342.3,100.2c0,0,.2,0,.3,0,.1,0,.3,0,.4,0,.6.5,4.6,4.8.2,10-.2,0-.4,0-.6,0-.2,0-.4,0-.6,0-4.3-5.3-.3-9.5.3-10ZM342.1,110.8c.1,0,.2,0,.4,0,.6.8,1,2,1.2,3.4v.6c0,0,.1.2.1.2.3,2.2.1,4.3,0,5.1-.5-.3-.8-.6-1-.8.2-1.1.3-2.2.3-3.2v-.3s0-.9,0-.9h0c-.1-2.2-.7-3.6-1-4.2ZM342.6,115.2l.3.7h0c-3.6-.3-5.3-4-5.8-5.3,3.3.7,4.9,3.2,5.5,4.6Z"/>
      <path class="cls-1" d="M323.5,63.3c-.2-.3-.2-.8,0-1.1,0,0,.1-.2.2-.3,0,0,0,0,0,0-.3.1-.8,0-1-.3-.2-.4,0-.9.5-1.1-.4,0-.7.3-1,.4-.3.1-.8.2-1,0-.3-.2-.3-.6-.2-1,.1-.3.4-.6.6-.8-.6.1-1.1.7-1.6.5-.5-.2-.6-1-.3-1.5.3-.5.8-.8,1.1-1.3-.8.4-1.7.7-2.6.9-.3,0-.7.1-.9,0-.2-.1-.2-.5,0-.6l-1.3.4c-.3,0-.6.2-.9.1-.3,0-.5-.4-.4-.7-.5.3-.9.6-1.5.5-.3,0-.5-.2-.7-.5-.2-.3,0-.5.2-.7-.5.2-1,.8-.8,1.4.1.4.6.6,1,.6.4,0,.8-.3,1.2-.5-.2,0,.3.6.4.6.3.2.8.3,1.1.2.2,0,.4-.1.6-.2,0,0,.6-.3.6-.3,0,.3.4.4.7.3.6,0,1.1,0,1.7,0-.4.4-.5,1-.2,1.5.3.5.9.7,1.4.6-.4.5,0,1.3.5,1.5.5.2,1.1,0,1.5-.5,0,0,0,.1-.1.2,0,0,0,.2-.1.2,0,.2,0,.3,0,.5,0,.2,0,.3.2.4,0,.1.2.2.3.3,0,0,.1,0,.2,0,.2,0,.3,0,.5-.2,0,.2-.2.3-.3.5,0,.2-.2.3-.2.5,0,.4.3.8.7.9.2,0,.5,0,.7-.1.5-.3.7-.8,1-1.3-.4.5-1.2.5-1.6,0Z"/>
      <path class="cls-1" d="M302.4,57.5c.4,0,.7-.3,1-.5,0,0,.2,0,.3,0,0,0,0,.2,0,.2,0,.4.5.7.9.8.4,0,.8-.2,1.2-.4,0,0,0,.2,0,.2.2.3.5.4.9.4.3,0,.7,0,1-.2.4-.1.8-.3,1.1-.6-.2.2-.5.4-.7.4-.3,0-.5-.4-.5-.7,0-.3.3-.6.5-.8-.6.3-1.1.6-1.8.8-.3,0-.5.1-.8,0-.3,0-.5-.3-.5-.6,0-.1.1-.3.2-.4.2-.2.3-.3.6-.4-.5.2-1,.4-1.5.6-.4.2-.8.3-1.2.3-.4,0-.8-.3-.9-.7,0-.2,0-.3,0-.5,0,0-.1,0-.2.1-.3.2-.5.4-.6.7-.1.3-.1.7,0,.9.2.3.7.3,1,.2Z"/>
      <path class="cls-1" d="M328,48.6s-.1,0-.1,0c0,0,0,0-.1,0-.2,0-.4.1-.6.1-.3,0-.6-.2-.7-.5,0-.2,0-.4,0-.6-.1-.2-.4-.2-.6-.1-.5,0-1.4.8-1.8.2,0,0,0-.2,0-.3,0,0,0-.1,0-.2-.4.3-.8.5-1.3.7-.5.2-.9.5-1.4.7-.3.1-.7.2-.9,0-.3-.3,0-.9.3-1.1.2-.3.3-.3.6-.5-1.2.5-2.3.7-3.6,1.2-1.3.5-2.6,1-3.6,2-.2.1-.3.3-.4.5,0,.2,0,.5.3.5-1.5.5-2.7,1.5-3.6,2.7-.2.3-.3.7,0,.9.1,0,.3.1.4.1.4,0,.9-.2,1.2-.4-.2-.2-.3-.5-.2-.8,0-.3.3-.5.5-.7.8-.8,1.8-1.4,2.9-1.8-.2,0-.3-.1-.4-.3s.1-.3.2-.5c.1-.1.2-.2.3-.4.5-.5,1.1-.9,1.7-1.2.7-.3,1.3-.6,2-.8,0,0,.2,0,.3,0,0,0,.3,0,.3,0-.2.7-.3,1.6.7,1.6,1,0,1.9-.4,2.6-1.2-.2.3-.4.7-.2,1,.2.3.6.3.9.2.8-.2,1.5-.5,2-1.1-.2.3-.5.8-.2,1,0,0,0,0,.1,0,.2,0,.4,0,.5,0,.3,0,.5-.1.8-.2.3-.1.6-.3.9-.6,0,0,.2-.2.1-.2Z"/>
      <path class="cls-1" d="M308.3,64.1c-1.1.6-2.4,1-3.6,1.2-.4,0-.9,0-1-.3,0-.2,0-.3.2-.5.4-.6,1-1.2,1.7-1.5-1.1.5-2.3.9-3.5,1.1-.5,0-1.2,0-1.2-.5,0-.2.1-.4.2-.5.5-.6,1-1.1,1.7-1.5-1,.7-2.1,1.2-3.3,1.5-.5.1-1,.2-1.4,0-.3-.2-.3-.6-.2-.9-.7.4-1.5.6-2.3.6-.1,0-.3,0-.4-.1-.4-.3,0-1,.4-1.3-.5.5-.9.9-1.3,1.5-.2.3-.3.8,0,.9.1,0,.3,0,.4,0,.3,0,.6,0,.8,0,.2,0,.3,0,.5-.1.2,0,.4-.1.6-.2,0,0,.5-.2.5-.2-.3.7.5,1.4,1.2,1.4.7,0,1.4-.4,2-.8-.2.3,0,.8.4,1,.4.2.8.1,1.2,0,.7-.1,1.4-.4,2.1-.6-.3.6-1.2,1.1-.9,1.8.1.3.4.4.7.4,1.1.2,2.3,0,3.3-.7.2-.1.4-.3.7-.3.2,0,.4.1.6.2.4.2.8.1,1.2,0-.7,0-1.3-.6-1.2-1.3Z"/>
      <path class="cls-1" d="M293.3,68.7c0-.2,0-.3,0-.5,0,0,0,0,0-.1,0,0-.1,0-.2.1,0,0-.1,0-.2.1-.1,0-.3.1-.4.2-.3.1-.6.2-.9.2-.2,0-.4,0-.6,0-.1,0-.2,0-.3,0,0,0-.2,0-.2,0,0,0-.1-.2-.1-.3,0-.1,0-.2,0-.3,0,0,0,0,0,0,0,0,0-.2.1-.3,0,0,.1-.2.2-.2-.7.4-1.4.8-2.2.9-.1,0-.3,0-.4,0-.2-.1-.1-.5,0-.7.6-1,1.4-1.9,2.3-2.7-.9.6-1.8,1.4-2.6,2.2-.3.3-.6.8-.5,1.2.1.4.6.6,1,.6.4,0,.8-.2,1.1-.4,0,0,.2-.1.3-.2,0,0,.2,0,.3-.1,0,.3-.2.6-.1.9,0,.1,0,.3.1.4,0,.1.2.2.3.2.1,0,.3,0,.4,0,.2,0,.4-.1.6-.2.3-.1.6-.3.9-.4.2-.1.4-.3.6-.4,0,0,0,0,.1,0,0,0,0,.1,0,.2,0,0,0,.1,0,.2,0,.1,0,.3,0,.4,0,.2.2.3.3.4,0,0,.1,0,.2,0,0,0,.2,0,.3,0,.3,0,.6-.2.8-.4.7-.5,1.3-1.2,1.7-2-.8.6-1.7,1.1-2.6,1.4-.1,0-.5.2-.5,0Z"/>
      <path class="cls-1" d="M372.5,56.1c.3.2.4.4.2.7-.2.3-.4.4-.7.5-.5,0-1-.2-1.5-.5.2.3,0,.6-.4.7-.3,0-.6,0-.9-.1l-1.3-.4c.1.1.2.5,0,.6-.2.2-.6.2-.9,0-.9-.2-1.8-.5-2.6-.9.3.5.8.8,1.1,1.3.3.5.2,1.3-.3,1.5-.5.2-1-.4-1.6-.5.2.3.5.5.6.8.1.3,0,.7-.2,1-.3.2-.7.2-1,0-.3-.1-.7-.3-1-.4.4.2.7.7.5,1.1-.2.3-.6.5-1,.3,0,0,0,0,0,0,0,0,.1.2.2.3.2.3.1.8,0,1.1-.4.5-1.2.4-1.6,0,.2.5.5,1,1,1.3.2.1.5.2.7.1.4,0,.8-.4.7-.9,0-.2,0-.4-.2-.5,0-.2-.2-.3-.3-.5.1.1.3.2.5.2,0,0,.1,0,.2,0,.1,0,.2-.2.3-.3,0-.1.2-.3.2-.4,0-.2,0-.4,0-.5,0,0,0-.2-.1-.2,0,0,0-.2-.1-.2.4.4.9.7,1.5.5.6-.2,1-1.1.5-1.5.5.1,1.1-.1,1.4-.6.3-.5.2-1.1-.2-1.5.6,0,1.1,0,1.7,0,.3,0,.7,0,.7-.3,0,0,.5.3.6.3.2,0,.4.2.6.2.4,0,.8,0,1.1-.2,0,0,.5-.6.4-.6.4.2.8.5,1.2.5.4,0,.9-.2,1-.6.2-.6-.3-1.2-.8-1.4Z"/>
      <path class="cls-1" d="M377.3,57.9c-.3,0-.5-.2-.7-.4.2.4.7.5,1.1.6.3,0,.6.2,1,.2.3,0,.7-.1.9-.4,0,0,0-.2,0-.2.4.2.8.4,1.2.4.4,0,.9-.3.9-.8,0,0,0-.2,0-.2,0,0,.2,0,.3,0,.3.2.6.4,1,.5.4,0,.8,0,1-.2.2-.3.2-.6,0-.9-.1-.3-.4-.5-.6-.7,0,0-.1,0-.2-.1,0,.1.1.3,0,.5,0,.4-.5.7-.9.7-.4,0-.8-.1-1.2-.3-.5-.2-1-.4-1.5-.6.2.1.4.2.6.4,0,.1.2.2.2.4,0,.3-.2.5-.5.6-.3,0-.5,0-.8,0-.6-.2-1.2-.4-1.8-.8.2.2.4.5.5.8,0,.3-.1.7-.5.7Z"/>
      <path class="cls-1" d="M357.4,48.8c.3.2.5.4.9.6.2.1.5.2.8.2.2,0,.4,0,.5,0,0,0,0,0,.1,0,.3-.3,0-.7-.2-1,.6.5,1.3.9,2,1.1.3,0,.7,0,.9-.2.2-.3,0-.7-.2-1,.6.7,1.6,1.2,2.6,1.2.9,0,.9-1,.7-1.6,0,0,.2,0,.3,0,0,0,.2,0,.3,0,.7.2,1.4.5,2,.8.6.3,1.2.7,1.7,1.2.1.1.2.2.3.4.1.1.2.3.2.5,0,.2-.2.3-.4.3,1.1.4,2,1,2.9,1.8.2.2.4.4.5.7,0,.3,0,.6-.2.8.4.2.8.4,1.2.4.2,0,.3,0,.4-.1.2-.2.1-.6,0-.9-.8-1.3-2.1-2.3-3.6-2.7.2,0,.3-.3.3-.5,0-.2-.2-.4-.4-.5-1-1-2.3-1.5-3.6-2-1.3-.5-2.7-.8-3.9-1.4.3.2.7.4.9.7.2.3.5.8.3,1.1-.2.3-.6.2-.9,0-.5-.2-.9-.4-1.4-.7-.5-.2-.9-.4-1.3-.7,0,0,0,.1,0,.2,0,.1,0,.2,0,.3-.4.6-1.3,0-1.8-.2-.2,0-.4,0-.6.1-.1.2,0,.4,0,.6,0,.3-.4.5-.7.5-.2,0-.4,0-.6-.1,0,0,0,0-.1,0,0,0-.1,0-.1,0,0,0,.1.1.1.2Z"/>
      <path class="cls-1" d="M376.9,65.5c.2,0,.4-.2.6-.2.3,0,.5.2.7.3.9.6,2.1.9,3.3.7.3,0,.6-.2.7-.4.3-.6-.6-1.1-.9-1.8.7.3,1.4.5,2.1.6.4,0,.8.1,1.2,0,.4-.2.6-.7.4-1,.6.4,1.2.8,2,.8.7,0,1.5-.7,1.2-1.4,0,0,.4.2.5.2.2,0,.4.1.6.2.2,0,.3,0,.5.1.3,0,.6,0,.8,0,.1,0,.3,0,.4,0,.3-.2.2-.6,0-.9-.3-.6-.8-1-1.3-1.5.3.3.8,1,.4,1.3-.1,0-.3.1-.4.1-.8,0-1.6-.2-2.3-.6.2.3.1.7-.2.9-.4.3-1,.2-1.4,0-1.2-.3-2.3-.9-3.3-1.5.6.4,1.2.9,1.7,1.5.1.2.3.3.2.5,0,.5-.7.6-1.2.5-1.2-.2-2.4-.6-3.5-1.1.7.4,1.3.9,1.7,1.5,0,.1.2.3.2.5,0,.4-.6.4-1,.3-1.3-.2-2.5-.6-3.6-1.2.1.7-.5,1.4-1.2,1.3.4.2.8.3,1.2,0Z"/>
      <path class="cls-1" d="M390.5,69.3c.2.2.5.3.8.4,0,0,.2,0,.3,0,0,0,.1,0,.2,0,.2,0,.3-.2.3-.4,0-.1,0-.3,0-.4,0,0,0-.1,0-.2,0,0,0-.1,0-.2,0,0,0,0,.1,0,.2.2.4.3.6.4.3.2.6.3.9.4.2,0,.4.1.6.2.1,0,.3,0,.4,0,.1,0,.2-.1.3-.2,0-.1.1-.2.1-.4,0-.3,0-.6-.1-.9,0,0,.2,0,.3.1,0,0,.2.1.3.2.4.2.7.4,1.1.4.4,0,.9-.2,1-.6.1-.4-.2-.9-.5-1.2-.8-.8-1.6-1.6-2.6-2.2.9.8,1.7,1.7,2.3,2.7.1.2.2.6,0,.7-.1,0-.2,0-.4,0-.8-.2-1.5-.5-2.2-.9,0,0,.1.1.2.2,0,0,0,.2.1.3,0,0,0,0,0,0,0,0,0,.2,0,.3,0,.1,0,.2-.1.3,0,0-.2,0-.2,0-.1,0-.2,0-.3,0-.2,0-.4,0-.6,0-.3,0-.6-.1-.9-.2-.1,0-.3-.1-.4-.2,0,0-.1,0-.2-.1,0,0-.1-.1-.2-.1,0,0,0,0,0,.1,0,.2.1.3,0,.5,0,.2-.4,0-.5,0-.9-.4-1.8-.9-2.6-1.4.4.8,1,1.5,1.7,2Z"/>
      <path class="cls-1" d="M340.8,87.2c-2.2-.3-2.9-2.6-2.9-2.6l-.5.9c1.5,2.1,3.4,1.8,3.4,1.8Z"/>
      <path class="cls-1" d="M336.3,52.2c-.4,0-.7.3-.7.7s.3.7.7.7.7-.3.7-.7-.3-.7-.7-.7ZM336.3,53.1c-.2,0-.3-.1-.3-.3s.1-.3.3-.3.3.1.3.3-.1.3-.3.3Z"/>
      <path class="cls-1" d="M415.7,94.4c-.2-.3-.6-.5-1-.5l-9.2,2-1,5-2.4,1.6c0-4.3-.2-8.7-.6-13.3l4.9,1.1,5.5-7.5c.3-.4.3-.9,0-1.2-.2-.3-.6-.5-1-.5l-9.2,2-1,5-22.1,14.5c0-1.9-.2-3.8-.4-5.8,0,0,0-.1,0-.2.5,0,1,.1,1.5.1,1.2,0,2.3-.2,3.2-.8,3.1-2,4-7.9,4.2-9.1h0c0-.1-.3-.3-.3-.3-.6-.4-2-1.5-2.4-3.1.5,0,1,.2,1.5.3.4.2.9.4,1.3.6,1.3.6,2.8,1.3,4.6,1.3.6,0,1.2,0,1.9-.3,2.9-1,4.1-2.4,4.1-2.5l.3-.4-3.6-.3,1.1-3.4-.7.5s-1.7,1.3-2.5,1.5h-.2c-.7.3-1.5.5-3.7-.4-1.4-.6-2.5-.8-3.6-.6-1.3.2-2.2.9-3,1.6-.8.7-1.8,1.5-2.1,2.6h0c0,.3,0,.5-.1.7h0c0,0,0,0,0,0,0,.3,0,.7,0,1,0,.5.2,1,.4,1.4.2.4.3.7.6,1,0,0,0,0,0,0-2.2,0-5.3-.4-9.4-1.7h0s0,0,0,0c-3-.9-6-1.4-8.8-1.4h0c-4.1,0-7.5.9-10.3,2.2,0,0,0-.2,0-.3,0-.2-.2-.4-.3-.6-.3-.5-.7-1.1-.7-1.7-.1-.7,0-1.4.1-2.1.2-1,0-1.9-.2-2.8-.2-.6-.4-1-.8-1.4-.2-.2-.3-.3-.4-.5,0,0-.1-.2-.2-.2.3-.6.5-1.1.5-1.7,0,0,0-.1.1-.2h0c0-.2.1-.2.2-.3,0-.1.2-.2.3-.4.2-.3.3-.7.2-1.1v-.6c.1,0,.2-.1.3-.2.3.7.9,1.1,1.6,1.1.7,0,1.5-.4,2.1-.9.1.2.3.3.5.4.6.2,1.2-.2,1.4-.3.5-.3,1-.7,1.4-1.3.2,0,.4,0,.6,0,.7-.1,1.1-.8,1.4-1.4h0c.1-.4.1-.4.2-.4.5-.3.8-.8.9-1.2,0,0,.1,0,.2,0,.2-.1.4,0,.6,0,.3.3.7.3,1.1.1.3.3.7.4,1.1.4.3,0,.5-.2.7-.3,0,0,.2.1.3.2.2,0,.4.3.6.6h0c.5.8,1.1,1,1.4,1,.3,0,.7-.1,1.1-.5.6.4,1.1.4,1.4.3.3,0,.8-.3,1.2-1.1.3-.6.5-1.2.5-1.8.3,0,.6-.2.9-.4,0,0,.2.1.2.2.1.1.2.2.3.3.6.4,1.3.8,2,1.2.2.1.5.2.8.3.3,0,.5,0,.7,0,0,0,.2.1.3.2,1.9,1.4,3.1,2,4,1.5.1,0,.2-.2.4-.3,1.1.8,2.3,1.6,3.7,2.1.3.1.6.1.9,0,.2,0,.4-.2.5-.3.3.2.6.4.9.6,1,.7,2.1,1.5,3.3,2,.7.3,1.2.2,1.5,0,.4-.2.6-.6.6-1,.6.6,1.3,1.1,2.4,1.4h0c.6.1.9,0,1.2-.2.8.6,1.6,1.2,2.5,1.7.5.2,1,.2,1.4-.1.2-.2.3-.3.4-.5.8.4,1.5.7,2.1,1.2.3.2,1.1.8,2,.3.2-.1.4-.3.5-.6.4.3.8.7,1.3,1,.4.3,1.6,1.1,2.4.6.2,0,.4-.3.5-.8.3.2.5.3.8.5.4.2.8.5,1.3.8.9.6,1.9,1.3,3,1.5h0c0,0,.1,0,.2,0,.3,0,.5,0,.7-.2.3-.2.4-.6.3-1-.2-1.6-1.2-2.8-2.1-3.8-2.4-2.7-5.3-5.1-8.1-7.4-1-.9-2.1-1.8-3.2-2.7-7-6.1-14.3-11.7-22.3-17-7-4.7-14.1-7.2-21-7.6-3-.1-5.4.2-7.2,1.2-4.3,2.2-2.9,6.9-1.9,10.3v.3c.7,1.8.8,3.1.3,3.9-.2.3-.5.5-.8.6,0,0,0,0,0,0h0c-1.8-2.1-4.6-2-5.4-1.9-.3-.2-.6-.4-.8-.6,0-1.3-.2-2.5-.8-3.4-.2-.3-.5-.6-.7-.9,0,0,0,0,0,0,0,0,0,0,0,0,0-.5-.2-.9-.6-1.2-.4-.4-.9-.6-1.6-.6-.5,0-1,.2-1.4.3h-.1c-.3.2-.6.3-.9.2,0,0-.1,0-.2,0,.4-2.2,0-4.2-1.1-5.6-2.1-2.4-6-2.7-8.9-2.6-7,.3-14,2.9-21,7.6-8,5.3-15.2,10.9-22.3,17-1,.9-2.1,1.8-3.1,2.7-2.8,2.3-5.6,4.7-8.1,7.4-.9,1-2,2.2-2.1,3.8,0,.7.3,1,.5,1.1.2.1.4.2.6.2.6,0,1.3-.3,2.2-.9.5-.3,1-.7,1.5-1,.4-.3.8-.5,1.3-.8.2-.1.4,0,.5.1.1.2.3.4.5.4.8.4,1.8-.1,3.3-1.4.1-.1.4-.1.5,0,0,.1.2.2.3.3.8.5,1.7,0,2-.3.6-.4,1.2-.7,1.8-1,.2,0,.3,0,.4.1,0,0,.1.2.2.2.4.3.9.4,1.4.1.9-.4,1.6-1,2.3-1.5,0,0,.2-.1.2-.2.3.2.6.4,1.2.3h0c.8-.3,1.4-.7,2-1.1.2-.1.4,0,.5.1.1.2.3.4.5.6.3.2.8.3,1.4,0,1.3-.5,2.3-1.3,3.3-2,.3-.2.6-.4.9-.6.1.1.3.2.5.3.3,0,.6,0,.9,0,1.3-.4,2.4-1.2,3.4-1.9.1,0,.3,0,.4,0,.1.1.3.2.5.3.8.2,1.9-.4,3.6-1.6.1-.1.3-.2.3-.2.1,0,.4.1.7,0h.1c.9-.2,1.6-.7,2.3-1.2l.4-.2c0,0,.2-.1.3-.3,0,0,.1-.1.2-.2.2.2.4.3.7.4.1,0,.2.2.2.3.1,1,.6,2.2,1.4,2.6.3.1.8.2,1.4,0,.1,0,.3,0,.4,0,.4.3.7.3.9.3.4,0,.9-.1,1.4-.8h0c.2-.4.4-.6.6-.7.1,0,.2-.1.3-.2.2.2.5.3.7.3.4,0,.8,0,1.1-.4.3.2.8.2,1.1-.1.2-.2.3-.2.6,0,0,0,.1,0,.2,0,.1.4.4.9.9,1.2,0,0,.1,0,.2.3h0c.2.6.6,1.4,1.4,1.5.2,0,.4,0,.7,0,0,0,0,0,0,0v.4c0,0,.4-.2.4-.2.5-.3,1-.9,1.4-1.7.2.8.5,1.6,1,2.3-1.5,1.3-2.3,3.3-2,5.2v.4c0,0,.4-.2.4-.2.6-.3,1.1-.9,1.5-1.7.2,1.1.6,2.1,1.2,2.9-1.5,1.6-1.9,3.4-1.4,5.2v.4c.1,0,.4-.2.4-.2.5-.4,1-1,1.3-1.8,0,.5.2,1,.4,1.5.4,1,.4,1.2,1.2,1.9-.2.2-.3.5-.4.7-2.7-1.1-5.9-2-9.7-2h0c-2.9,0-5.8.5-8.8,1.4h0s0,0,0,0c-4.1,1.3-7.2,1.7-9.4,1.7,0,0,0,0,0,0,.2-.3.4-.7.6-1,.2-.5.3-.9.4-1.4,0-.3,0-.7,0-1h0s0,0,0,0c0-.2,0-.4-.1-.5h0c-.3-1.2-1.3-2.1-2.1-2.8-.8-.7-1.7-1.5-3-1.6-1-.1-2.2,0-3.6.6-2.2.9-3,.6-3.7.4h-.2c-.8-.3-2.5-1.6-2.5-1.6l-.7-.5,1.1,3.4-3.6.3.3.4c0,0,1.2,1.5,4.1,2.5.7.2,1.3.3,1.9.3,1.8,0,3.3-.7,4.6-1.3.5-.2.9-.4,1.3-.6.5-.2,1-.3,1.5-.3-.4,1.6-1.8,2.7-2.4,3.1l-.3.2h0c.2,1.3,1.1,7.3,4.2,9.2.9.6,2,.8,3.2.8.5,0,.9,0,1.5,0-.2,2-.3,4-.4,5.9l-22.1-14.5-1-5s-9.2-2-9.2-2c-.4,0-.8.1-1,.5-.3.4-.2.9,0,1.2l5.5,7.6,4.9-1.1c-.4,4.6-.5,9.1-.6,13.3l-2.4-1.6-1-5s-9.2-2-9.2-2c-.4,0-.8.1-1,.5-.3.4-.2.9,0,1.2l5.5,7.6,4.7-1c-3.4,25.5.4,42.8,4.2,52.9,3.9,10.3,8.5,15.3,9.3,16,1.3,1.5,9.4,10.3,22.1,10.3s11.8-1.7,18.7-6.4c-2.2,7.1-7.7,15.4-7.8,15.5l-.3.5h.5c2.5,0,4.5.1,6,.4l-.9,3.8c-.1.4,0,.6,0,.6,0,.2,0,.6.4,1,.6.5,1.6.7,3.2.4.7-.1,1.2-.1,1.6,0v4c.1,0,.1.2.2.2,0,0,0,.2.1.3.5.8,2.3,1.1,5.4,1.1s4.9-.4,5.4-1.1c.1-.2.1-.4.1-.5v-4c.6,0,1.1,0,1.8,0,1.5.3,2.6.1,3.2-.4.4-.3.4-.8.4-.9,0,0,0-.2,0-.3,0-.2-.1-.5-.2-.7,0-.4-.2-.8-.3-1.2-.1-.5-.2-.9-.3-1.4,0-.3-.1-.6-.2-.9,0,0,0,0,0,0,1.5-.3,3.5-.5,6-.4h.5s-.3-.4-.3-.4c0,0-5.6-8.5-7.8-15.6,6.9,4.7,13.3,6.4,18.7,6.4,12.7,0,20.9-9,22.2-10.4.2-.2,5-4.9,9.1-15.9,3.8-10.1,7.6-27.4,4.2-52.9l4.7,1,5.5-7.6c.3-.4.3-.9,0-1.2ZM402.9,84.1l7.1-1.5-4.3,5.9-3.6-.8.7-3.6ZM280.1,88.5l-4.3-5.9,7.1,1.5.7,3.6-3.6.8ZM276.2,101.5l-4.3-5.9,7.1,1.5.7,3.6-3.6.8ZM389.9,96.7l10.2-6.6c.3,4.6.5,9.1.5,13.4l-11.6,7.6c.5-4.3.8-9,.9-14.3ZM378.6,104l4.8-3.2c-.2,5.3-.7,10.1-1.3,14.7l-3.7,2.5c.4-4.4.5-9,.3-14ZM378.1,119.9l6-3.9c-.3,8.2-1.5,16.5-4,24.3-1.3,4-3,7.9-5,11.7-2,3.7-4.5,7.2-7.1,10.4-1.4,1.7-2.9,3.3-4.4,4.9-1.1-1.1-1.9-2-2.5-2.7,8-10,15.1-24.7,17.1-44.7ZM351.8,164.3c-.2-.3-.4-.3-.6-.4h-.1c-.1,0-.2-.2-.2-.2,0,0,0,0,.1-.1,0,0,.1,0,.2-.2.3-.4.3-.9,0-1.3-.4-.6-1.3-.9-1.9-.7-.3,0-.5.2-.8.3-.1,0-.2.1-.4.2-.2,0-.6.2-.9,0,0,0-.2-.2-.3-.3-.1-.1-.2-.3-.4-.4-.3-.2-.6-.2-.8-.2l-3.3-.2c-.4,0-.7,0-.9.5,0,0-.2,0-.4,0-.2,0-.4,0-.6,0-.3.1-.5.4-.7.6-.1.1-.2.3-.3.4-.3.2-.7.2-1.2,0-.2,0-.4,0-.7,0-.6,0-1.5.3-1.9.8-.3.3-.3.7-.2,1.1,0,0,0,.2.1.2,0,0,0,0,0,.1,0,.2,0,.4-.2.5-.2.2-.5.2-.8.3-.4,0-.8,0-1.1.4-.1.1-.2.2-.2.4,0,.1-.1.2-.2.2,0,0-.1,0-.2.1,0,0-.2,0-.3.1-.6.4-.6,1.1-.6,1.8,0,.3,0,.5,0,.7-5.2-4.9-10.4-11.8-14.6-20.9h4.2c0,.2.2.4.3.6.6,1.3,1.2,2.7,2.4,3.6.3.3.5.7.8,1.2.2.4.5.8.8,1.2.4.5,1,.9,1.6,1.3,1.5,1,3.3,2.2,5.2,2.6.5.1,1,.2,1.4.2.6,0,1.1.1,1.7.3.4.1.8.2,1.2.4.3.1.6.2,1,.3,1.2.4,2.5.4,3.8.5,2.1,0,4.3.2,6.3-.4h.3c1-.4,2.1-.6,2.8,0,.3.2.5.6.7.9.4.6.8,1.2,1.6,1.3.2,0,.2,0,.2,0,0,0,0,.2,0,.4s0,.2,0,.4c0,.4.3.7.8.8.1,0,.2,0,.3,0,.4,0,.7-.1.9-.4.5-.6.2-1.6-.3-2.1h0c0,0-.1-.1-.1-.2,0,0,0-.1.1-.3.8-1.1,2.1-1.9,3.5-2,.1,0,.2,0,.3,0,.5,0,1,0,1.4-.3l.4-.3-.4-.2c-.3-.2-.6-.3-.8-.5,1-.6,2.1-.8,3.3.6-3.1,4.8-6.5,8.7-9.9,11.8,0-.1-.1-.3-.1-.4h0c0-.2-.1-.3-.2-.4,0,0,0-.1-.1-.2,0,0,0-.2,0-.3,0-.1,0-.2,0-.3-.1-.6-.6-1-1.3-1.3-.2,0-.3-.1-.3-.1,0-.2.2-.5.4-.7.3-.5.7-1,.4-1.7ZM335.2,95.8c-8.9,3.1-15.9.9-20.1-1.3.9-.2,1.8-.5,2.7-.7,8.1-1.6,14.2-.2,17.4.9,0,.4,0,.8,0,1.1ZM338.3,96.2c.5.7,1.1,1.2,1.8,1.6l.3.2v-.4c.2-.7,0-1.5-.2-2.4.6-.3,1.2-.6,1.8-1,.1.3.3.6.4.9l.2.3.3-.3c.2-.3.4-.6.6-1,5.8,3.5,11.1,4.7,15.7,4.7,5.6,0,10-1.8,12.9-3.4,0,0,.3-.2.5-.3,1.1.3,2.2.6,3.2.8,0,.2,0,.4,0,.5.9,9.5.8,18.1-.2,25.8h-65.4c-1-7.9-1.2-16.6-.2-26.2,1-.2,2.1-.5,3.3-.8,4.7,2.8,13.9,6,25.1,1.1ZM332.8,76.3h0c0,0,0-.2,0-.3.6.5,1.2.9,1.9,1.1h.4c0,0,0-.3,0-.3,0-.8-.5-1.8-1.2-2.6h0c-.5-.5-1.2-1.1-1.9-1.4,0-.4.1-.9.1-1.4l1.9,1.5.5.8v1.6c.1.1.2.3.3.4,0,0,.1.1.2.2h0c0,.2.1.2.1.3,0,.6.2,1.1.5,1.7,0,0-.1.2-.2.2-.1.2-.3.4-.4.5-.3.4-.6.8-.7,1.3-.5-.4-1.1-.8-1.4-1,.1-.8.1-1.6,0-2.5ZM333.5,54.9c0,.4,0,.7-.1,1.1-.1.6-.3,1.2-.6,1.8-.5.9-1.1,1.6-1.8,2,0-1.4.5-2.8,1.4-3.9.3-.4.7-.7,1.1-1ZM333.1,53.9c-1.1-.1-2.1.2-2.8.9,0,0,0,0,0,0,0-.3,0-.5.2-.8,0-.2.2-.4.3-.5.2-.3.6-.6,1-.8.2-.1.5-.2.7-.2s.4,0,.6,0c.2,0,.4.2.4.5,0,.2,0,.4-.1.8,0,0,0,0,0,0,0,0-.2,0-.2,0ZM331.4,64.1h0c0-.2,0-.5,0-.7.5.7,1.2,1.2,1.9,1.5l.4.2v-.4c0-.8-.2-1.8-.8-2.7h0c-.4-.6-.9-1.2-1.6-1.6.7-.5,1.5-1.2,2-2.2h0c.3-.6.5-1.2.6-1.8.2.7.5,1.3.8,1.8.5.9,1.3,1.6,2.1,2.1-.9,1.7-1,3.7-.2,5.3l.2.4.3-.3c.5-.6.8-1.4.9-2.4.5,1.1,1.3,2,2.2,2.5-.3.3-.6.6-.9,1-.8,1.1-1.2,2.5-1,3.9v.4c0,0,.4-.2.4-.2.7-.4,1.3-1.1,1.7-2,.2,1.2.7,2.3,1.4,3.1-.7.5-1.3,1.1-1.8,1.8-.5.8-.8,1.8-.8,2.7v.4s.4-.1.4-.1c.6-.2,1.3-.7,1.8-1.5,0,1.2.2,2.4.7,3.4-.4.2-.7.3-1.1.6-1.1.8-1.9,2-2.1,3.4v.4c0,0,.3,0,.3,0,.7-.1,1.4-.5,2.1-1.1-.3,1.4-.1,2.9.4,4.2-.4.5-.8,1-1.1,1.7-.6,1.2-.8,2.6-.6,3.9-.8-.7-1.9-1.6-3.1-2.4,0-.3-.2-.7-.3-.9h0c0-.1-.1-.3-.2-.4.5.2,1,.3,1.5.3s.3,0,.4,0h.4s-.1-.4-.1-.4c-.3-.8-1-1.5-1.9-2.1h0s-.1,0-.2,0c0-.6-.2-1.2-.9-1.3-.2,0-.5,0-.7,0,0,0-.1,0-.1,0,0,0,0,0,0-.1-.2-.5-.3-1-.3-1.5.4.3.8.5,1.2.7h.4c0,.1,0-.3,0-.3,0-.8-.4-1.8-1-2.6h0c0,0-.2-.2-.3-.3,0-.2.1-.3.2-.4.4-.6.7-1.1,1.2-1.7,0,0,.2-.2.3-.1-.4-.3-.7-.6-.8-1.1,0-.4,0-.8,0-1.2,0,0,0-.1.1-.2-.3,0-.5-.4-.6-.7,0-.3-.1-.7,0-.9h0c0-.1-1.2-1.9-1.2-1.9,0,0-1.2,0-1.9-1,0,0,0,0,0,0,0-.2,0-.4,0-.6.5.4,1,.7,1.6.9h.4c0,.1,0-.3,0-.3,0-.8-.4-1.8-1.1-2.6h0c-.5-.7-1.2-1.2-2-1.5.4-.7.6-1.6.7-2.5ZM330.9,60.7c.6.4,1.2,1,1.5,1.5.4.6.6,1.3.7,2-.6-.3-1.1-.8-1.4-1.3-.2-.3-.4-.7-.5-1.1,0-.2-.1-.4-.2-.6,0-.1,0-.2,0-.4ZM334.2,55c.8.5,1.5,1.2,2,2,.5.9.8,1.8.9,2.7-.8-.4-1.4-1.1-1.9-1.8-.5-.9-.9-1.9-1-2.8ZM337.2,60.6c.2.6.3,1.4.3,2.2,0,.8-.3,1.5-.6,2-.5-1.3-.4-2.8.3-4.2ZM337.9,60.4c.8.5,1.5,1.3,1.9,2.1.4.7.6,1.5.7,2.3v.3c-1.5-.8-2.5-2.7-2.6-4.7ZM340.5,66.2c0,0,0,.2,0,.3,0,.1,0,.3,0,.4,0,.5-.2,1-.4,1.5-.3.7-.7,1.2-1.2,1.6,0-1.1.3-2.2.9-3,.2-.3.4-.5.7-.8ZM343.4,75.6c0,1-.2,1.9-.5,2.6h0c-.6-1.2-.8-2.7-.5-4,.1-.5.2-1,.4-1.5.4.9.7,1.9.7,2.9ZM343.1,71.4c.6.4,1.1,1,1.4,1.6.4.7.6,1.4.6,2-.8-.5-1.5-1.4-1.8-2.5,0-.3-.2-.7-.2-1.1ZM341.6,90.8c-.2.4-.5.8-.7,1.1-.3-1.4-.2-2.9.5-4.2.2-.5.5-.9.8-1.3,0,.4.1.7.1,1.1,0,.3,0,.7,0,1-.2.5-.4.9-.5,1.5,0,.2,0,.5-.1.7ZM341.7,92.7s0,0,0,0c-.1-.1-.2-.2-.4-.4.1-.1.2-.3.3-.4,0,.2,0,.5,0,.7ZM337.5,92.2c.8.6,1.4,1.3,1.8,2.2.5.9.7,1.9.7,2.7-1.1-.7-1.9-2-2.3-3.3-.1-.5-.2-1.1-.2-1.6ZM337.6,94.9s0,0-.1,0c0,0-.2,0-.3-.1,0-.1,0-.3.1-.4h0c0,0,0-.2,0-.2,0,.2.2.5.3.7ZM339.7,93.8c-.5-.9-1.3-1.8-2.2-2.3,0-.4,0-1-.2-1.6,1.3.9,2.4,1.8,3.1,2.5,0,0,0,0,0,.1v.4c.1,0,.3-.2.3-.2,0,0,.2.2.2.3,0,0,0,0,0,0-.3.2-.6.3-.9.5-.1,0-.3.2-.4.2ZM342.2,91c.2-.4.4-.9.5-1.4h0c0-.3,0-.5.1-.8.1.3.3.7.4,1,.2.6.3,1.2.3,1.9,0,1-.3,2-.7,2.7-.5-1-.7-2.2-.6-3.4ZM342.8,86.2c.5.5.9,1.1,1.2,1.7.3.7.4,1.4.3,1.9-1-.9-1.5-2.3-1.5-3.7ZM342.3,85.3c-.5-1.3-.5-2.8,0-4.2.2-.5.4-1,.6-1.4.1.3.2.7.3,1.1.1.6.1,1.3,0,1.9-.1,1-.4,2-.9,2.6ZM341.4,81c-.5.5-1.1.9-1.6,1.1.3-1,.9-2,1.8-2.6.3-.2.6-.4.9-.5,0,.2-.1.4-.2.5v.2c-.3.4-.5.9-.9,1.2ZM341.3,66.7c.1.2.3.3.4.5.3.5.5,1,.6,1.5.2.7.2,1.3.2,1.9v.2c0,0,0,.1,0,.2,0,.1,0,.3,0,.4h0c-.9-1-1.4-2.3-1.4-3.8,0-.3,0-.6,0-.9,0-.1,0-.3,0-.4,0,0,0,0,0,0,.1.1.2.3.3.4ZM341.2,65.5c.7.2,1.3.5,1.8.9.6.5,1,1.1,1.3,1.6-.8-.1-1.5-.5-2.1-1.1-.3-.5-.6-1-1-1.4ZM342.1,72.3c0,.7-.3,1.4-.7,2.1-.4.6-.9,1.1-1.4,1.4,0-.7.3-1.4.7-2,.4-.6.9-1.1,1.5-1.5ZM336.6,86.1c.6.4,1.2.9,1.5,1.4-.6,0-1.3-.2-1.8-.5-.2,0-.3-.2-.4-.3-.4-.2-.9-.8-.9-.8-.1-.1-.2-.3-.3-.4.7,0,1.4.3,2,.6ZM335.1,85.1s0,0,0,0c.1-.2.2-.3.4-.3,0,0,.2,0,.2,0s.1,0,.2,0c0,0,0,0,.1.1,0,0,0,.1,0,.2,0,0,0,.2,0,.2,0,0,0,0,0,.1-.3,0-.7-.2-1.1-.3ZM332.3,68.5c.5.6.8,1.3.9,1.9-.6-.3-1.2-.7-1.6-1.3-.2-.5-.5-1-.8-1.5,0-.1,0-.2-.1-.3.6.3,1.2.8,1.6,1.3ZM331.7,73.3c.6.3,1.3.8,1.7,1.2.5.6.8,1.2,1,1.8-.6-.2-1.2-.6-1.6-1.1-.5-.5-.8-1.2-1.1-1.9,0,0,0,0,0,0ZM334.7,80.8c.4.6.8,1.3.9,1.9-.9-.4-1.6-1.2-2.1-2.2-.1-.3-.3-.7-.4-1.1.6.3,1.2.8,1.6,1.3ZM334.6,86.4c.2.3.5.5.8.7.4.4.7.9,1,1.4.5.9.7,1.9.7,2.7-1.1-.7-1.9-2-2.3-3.3,0-.1,0-.3,0-.4,0-.3,0-.6-.1-.9,0,0,0-.2,0-.2,0,0,0,0,0,0ZM336.7,94.3c-.2.7-.6,1.3-1,1.7,0-.6,0-1.3.2-2,.2-.7.6-1.4,1-1.9,0,.7,0,1.4-.2,2.1ZM349.1,95.3c2.5-1.1,9.3-3.3,18.9-1.4.9.2,1.7.5,2.5.7-5.1,2.7-12.4,4.4-21.4.8ZM375.4,123.7c-1.2,8.9-3.5,16.6-6.4,23.2h-25.4v-.7l1.7-3.6-1.6-4.9c.9.1,1.7.4,2.6.9.2.7,1,3.7,2.4,4.2.5.2,1.1.2,1.7.2,1.2,0,2.4-.3,2.9-.6l.3-.2-.3-.2s-1-.7-2-1.7c-1.3-1.4-1.3-3.9-1.2-5.3,0-.1,0-.3,0-.5.2-1.9.7-7.8-4.2-8.7-1.1-.2-2.1-.2-3.2,0-.9.2-1.8.5-2.7.9-.7.3-1.4.8-2,1.2-.4.3-.8.5-1.1.9-.4.4-.5.8-.5,1.4,0,.5-.1,1-.1,1.5,0,.3,0,.6.2.8.3.5.7.4,1,.3,0,0,.1,0,.2,0,0,.7-.2,3.5-.7,6v.6c0,0,.4-.3.4-.3,0,0,1.7-1,3.9-1.3l-1.6,4.9,1.8,3.6v.7h-24.6c-2.9-6.6-5.2-14.4-6.5-23.2h65ZM359.1,157.5c.2.2.5.4.7.6-.2,0-.4,0-.7,0-.1,0-.2,0-.3,0-1.5.1-3,1-3.9,2.2,0,.1-.3.5-.2.8,0,.2.2.3.3.4h0c.4.4.6,1,.2,1.4-.2.2-.5.2-.7.2,0,0-.3-.1-.3-.3,0-.1,0-.2,0-.3,0-.3,0-.6-.2-.8-.1-.1-.4-.2-.6-.2-.5,0-.8-.5-1.1-1-.2-.4-.5-.8-.8-1.1-.9-.7-2.2-.4-3.3-.1h-.3c-2,.6-4.1.5-6.2.4-1.2,0-2.5,0-3.6-.4-.3,0-.6-.2-.9-.3-.4-.1-.8-.3-1.2-.4-.6-.2-1.2-.2-1.8-.3-.5,0-.9-.1-1.4-.2-1.9-.4-3.5-1.5-5-2.5-.5-.3-1-.7-1.4-1.2-.3-.3-.5-.7-.7-1.1-.2-.4-.5-.9-.9-1.3-1.1-.9-1.7-2.1-2.3-3.4,0-.1-.1-.2-.2-.3h46c-1.5,3.3-3.2,6.3-5,9.1-1.6-1.7-3.2-1.1-4.3-.4l-.3.2.3.2ZM340.3,142.6l1.6-5c.4,0,.8,0,1.2,0l1.6,5-1.6,3.5v.9h-1.1v-.8l-1.7-3.6ZM347.7,131.2c-.6-1.3-1.7-2.5-3.1-2.7-1.2-.2-2.4.3-3.4.8-.9.5-1.7,1.1-2.4,1.7-.3.3-.7.6-1,.9-.1,0-.4.3-.6.3-.2,0-.3-.2-.3-.4,0-.6,0-1.2.1-1.8,0-.2,0-.4.1-.5.1-.2.3-.4.5-.5,1.9-1.7,4.4-2.8,6.9-2.8,1,0,2.1.2,2.9.7,1.2.8,1.9,2.2,2.1,3.6.2,1.4,0,2.9,0,4.3,0,1.4,0,2.9.5,4.3.5,1.2,1.4,2.2,2.5,2.9-1,.3-2,.5-3.1.3-.3,0-.7-.1-1-.3-.3-.2-.5-.5-.7-.9-.4-.8-.7-1.6-1-2.5,0-.2,0-.4-.2-.5,0,0-.2-.2-.3-.2-1.3-.7-2.9-1-4.4-1-1.5,0-3,.5-4.4,1.2.3-1.8.5-3.7.6-5.5,0,0,0-.2,0-.3,0,0,0,0,0,0,0-.1.1-.2.2-.3,1.1-1,2.2-1.9,3.5-2.5,1-.5,2.1-.8,3.1-.4.6.2,1,.6,1.4,1.1,1.1,1.4,1.3,3.3,1.5,5.2.2,0,.4,0,.5,0-.1-1.4-.3-2.9-.8-4.2ZM382.3,81.6c.8-.7,1.6-1.4,2.7-1.5.9-.1,2,0,3.3.6,2.4,1,3.3.7,4.1.4h.2c.5-.2,1.4-.8,2-1.2l-.8,2.4,3.2.3c-.5.5-1.6,1.3-3.4,1.9-2.5.7-4.4-.2-6.1-1-.5-.2-.9-.5-1.4-.6-1.7-.6-3.6-.5-5.2.3.4-.6,1-1.1,1.5-1.5ZM380.4,84.1c1-.7,2.1-1,3.4-1,.4,1.7,1.7,2.9,2.4,3.4-.5.5-1.9,1.4-4.8,1.6-.3-.5-1.5-2.2-1-4ZM362.4,85.5h0c2.8,0,5.7.5,8.6,1.4h0c9.6,2.9,13.8,1.4,15.2.2-.3,1.9-1.4,6.4-3.8,8-2.3,1.5-5.8.5-10.8-.9-1.1-.3-2.3-.6-3.5-1-10.5-2-17.6.7-19.8,1.7-.4-.2-.9-.4-1.3-.6,0,0-.2-.1-.3-.2-.4-.2-.7-.4-1.1-.6-.3-.2-.6-.3-.9-.5,0,0,0,0,0,0,2.2-2.3,8.2-7.5,17.6-7.5ZM351.4,86.5c0,0,.1.2.2.3,0,.1.1.3.2.4,0,.3-.4.4-.6.3-.4-.2-.9-.5-1.2-.9-.4-.4-1.5-1.8-.6-2.3.5-.2,1,.3,1.2.7.3.5.6,1,.9,1.5ZM351.5,57.4c.9-1.5.4-3.7,0-5.1v-.3c-1.2-3.9-1.9-7,1.1-8.5,1.6-.8,3.7-1.1,6.5-1,6.7.3,13.5,2.8,20.3,7.3,7.9,5.3,15.1,10.8,22.1,16.9,1,.9,2.1,1.8,3.2,2.7,2.7,2.3,5.6,4.7,7.9,7.3.7.7,1.3,1.5,1.6,2.3-.6-.3-1.2-.7-1.8-1.1-.5-.3-.9-.6-1.4-.9-.9-.5-1.4-.9-2.2-1.6-.3-.3-.8-.3-1.1,0-.3.3-.4.8-.1,1.1.2.2.3.4.3.5-.2,0-.4-.2-.5-.3h0c-.5-.4-1.1-.8-1.6-1.3-.4-.4-.9-.7-1.3-1l-2.7-1.9,1.6,2.9c.1.2.2.4.3.6,0,0,0,0,0,0-.9-.6-1.8-1.1-2.8-1.5l-.4-.2c-.3-.2-.7-.1-1,0-.2.2-.4.4-.4.7-.7-.4-1.3-.9-2-1.4-.2-.1-.4-.3-.5-.4l-.7-.5-.4.7c0,0,0,.1-.1.2,0,0,0,0,0,0-.7-.2-1.2-.6-1.7-1.1-.3-.2-.5-.5-.9-.7-.3-.2-.7-.2-1,0-.3.2-.5.5-.5.8h0c0,.2,0,.6,0,.8,0,0,0,0,0,0-1.1-.4-2-1.1-3-1.8-.5-.4-1.1-.8-1.7-1.1l-.6-.4-.4.6c0,0-.1.2-.1.3-1.3-.5-2.4-1.3-3.5-2.1l-.3-.2c-.2-.1-.7-.5-1.2-.2-.2.1-.4.3-.4.8-.4-.1-1-.5-2.1-1.3-.2-.1-.3-.2-.4-.3-.5-.4-.9-.3-1.2-.2,0,0,0,0,0,0,0,0-.2,0-.3-.1-.6-.3-1.2-.7-1.8-1.1,0,0-.1,0-.2-.1-.4-.3-.9-.8-1.5-.7-.3,0-.5.2-.7.5-.4-.1-.7-.1-.9,0-.4.3-.4.8-.4,1,0,.5,0,1-.4,1.7,0,.2-.2.3-.2.3,0,0-.1,0-.3-.2,0,0,0,0,0,0-.1-.1-.4-.4-.9-.3-.2,0-.5.1-.7.5-.1.2-.2.2-.2.3,0,0-.1,0-.3-.2h0c-.3-.5-.6-.9-1.2-1.2,0,0,0-.1-.1-.2h0c-.2-.4-.5-.6-.8-.5-.3,0-.6.2-.8.5h0c-.1,0-.4-.3-.7-.3-.3,0-.5,0-.6.2-.5-.3-1-.3-1.5-.2-.3,0-.5,0-.6,0-.4.2-.5.6-.6.8,0,.2-.1.5-.2.6-.6.3-.8.8-.9,1.1h0c0,.3-.2.4-.2.5-.2-.2-.5-.2-.8-.2-.3,0-.5.3-.6.5-.2.5-.6.8-1.2,1.2h0c0,0,0-.2,0-.3,0-.2,0-.4-.2-.7l-.7-1.9-.8,2.1c0,.1,0,.2-.1.4-.2.6-.9,1.1-1.3,1,0,0-.3,0-.4-.5,0,0,0,0,0-.1,0-.2,0-.6-.3-.9l-.6.5c-.2-.9-.8-1.8-.9-2.1-.2-.4,0-1.1.4-2,.5-.9-.7-2.9-.7-2.9,1.6-2,.7-4.4,0-5.9.6-.3,1-.6,1.3-1.1ZM348.4,58.1c.1.1.3.3.7.3,0,0,0,0,0,0,.7.8,1,1.6,1.2,2.6.1.5.2,1.1,0,1.6-.1.4-.3.8-.6,1.1-.2.2-.4.4-.6.6,0,0,0,0-.2.1-.5.2-1.3.6-2.6.7,0,0-1,.7,2.9-.1.2.2.4.5.6.8.2.4.3.6.2,1,0,.3-.2.7-.3,1-.1.3-.2.7-.2,1.1,0,.9.9,1.4,1.1,2.2.1.4,0,.9-.3,1.3-.1.1-.4.3-.5.4,0,.1.1.4.1.5,0,.3,0,.7,0,.9,0,.3-.3.6-.6.7,0,0,0,0,.1.2,0,.4,0,.8,0,1.2-.1.5-.4.8-.8,1.1.1,0,.2,0,.3.1.4.5.8,1.1,1.2,1.7.4.6.5,1.5.5,2.2,0,.8,0,1.5-.3,2.3,0,0,0,0,0,.1,0,0,0,0-.1,0-.2,0-.5,0-.7,0-.8.1-.9.9-.9,1.6l-1.2-1.3h0s-.7,2.3-2.9,2.6c0,0,1.9.3,3.4-1.7,0,.2.2.3.3.5.3.4.6.8,1,1.2.4.4.8.8,1.2,1,0,0,0,0,.1,0-3.1,1.7-5.2,3.6-6.3,4.8-.1,0-.2-.1-.3-.2,0-.3,0-.5,0-.8h0c0-.5,0-1-.2-1.5.2.2.3.3.5.4l.3.2v-.4c.3-.8.2-1.8-.2-2.7h0c-.4-.9-1-1.7-1.7-2.3.5-.7.8-1.7,1-2.8h0c0-.4,0-.8,0-1.3.6.7,1.3,1.3,2.1,1.6h.4c0,.1,0-.3,0-.3,0-.8-.4-1.8-1-2.7h0c-.5-.7-1.2-1.3-1.9-1.6.4-.8.6-1.8.6-2.9h0c0-.3,0-.6,0-1,.4.5.9.8,1.4,1.1l.4.2v-.4c.2-.8,0-1.8-.6-2.8h0c-.4-.8-1.1-1.5-1.9-1.9,0-.7,0-1.4-.2-2.2h0c0-.2-.1-.4-.2-.7.6.4,1.3.6,2,.6h.4s0-.3,0-.3c-.2-.8-.8-1.7-1.6-2.3h0c-.7-.5-1.5-.9-2.3-1,0-.8-.3-1.8-.8-2.6h0c-.6-1.1-1.5-2-2.5-2.6h-.1c0-1-.4-2-.9-3h0c-.3-.5-.7-.9-1.1-1.3.1,0,.3,0,.3.1.3,0,1.1.9,1.4,1.2.1.1.3.2.5.2v1.1c0,0,.7-1.1,1.4-1.2,0,0,1.7.7,1.9,2.4,0,.8.1,1.9.3,2.8,0,.2,0,.3.2.4.1.1.3.2.5.2,1,.2,2.1,0,3.1-.5.4-.3.9-.6,1-1.2,0-.7-.2-1.4-.4-2-.2-.4-.3-.8-.6-1.2-.1-.2-.2-.4-.4-.5-.2-.2-.3-.3-.5-.5,0,0,0,0,0-.1.8,0,3,0,4.3,1.5ZM343.3,79.1c.6.3,1.2.8,1.6,1.4.4.6.7,1.3.8,1.9-.9-.4-1.6-1.3-2.1-2.3-.1-.3-.3-.7-.4-1ZM341.6,53.8v.2c0,.2,0,.4,0,.6-.1.5.2.9.5,1.2,0,0,.2.1.3.2,0,0,0,0,.1,0,.9.6,1.6,1.4,2.1,2.3.4.6.8,1.4,1,2.1.1.6-.4,1.2-.9,1.4-.7.4-1.6.5-2.3.3,0,0-.2,0-.2-.1-.1-.1-.1-.3,0-.4,0-.3,0-.7,0-1,0,0,0-.4,0-.4,0,0,0-.1,0-.2h0c0-1.6-.8-2.8-2.1-3.8-.3-.2-.6-.4-1.1-.2-.1,0-.2,0-.3,0,0,0,0,0-.1,0-.2,0-.4,0-.5-.2-.9-.9-2-1.4-3.2-1.7,0,0,0,0,0,0,.1-.6.1-1.1,0-1.6.1-.1.3-.2.5-.3.2-.1.3-.3.5-.4.3-.2.6-.5.9-.5.2,0,.3,0,.5,0,.1,0,.3,0,.4,0,.3,0,.6,0,.9,0,.2,0,.4-.2.6-.2.2,0,.3.2.4.3.1,0,.3.1.5.2.3,0,.5,0,.7,0,0,0,.1,0,.2,0,.9.5,1.3,1.2,1.2,2.2ZM337.3,49.9c.6.3,1.3,0,1.3,0h.1c.4-.2.7-.3,1-.3.3,0,.6,0,.8.2.1.1.2.3.3.4,0,0,0,.3,0,.5,0,0-.1.1-.2.2-.3.3-.7.3-1,.1-.3-.1-.5-.4-.7-.5-.3,0-.5.2-.7.3-.4.2-.9,0-1.3,0-.9-.1-1.5.4-2,1-.2.2-.5.5-.8.4-.1,0-.2-.1-.3-.2-.2-.1-.3-.2-.5-.2-.3,0-.7,0-1-.1-.5-.2-.5-.8-.2-1.2.4-.5,1.4-.2,1.8.1,0,0,.2.1.3.1.1,0,.2,0,.3-.1l.2-.2c1.3-1.9,2.1-.8,2.8-.5ZM327.7,69.9c-.2,0-.4.2-.5.5,0,0,0-.2-.2-.3h0c-.1-.4-.3-.9-.9-1.2,0,0-.2-.4-.2-.6,0-.1-.2-.6-.6-.8-.1,0-.4-.1-.6,0-.5-.2-1.1-.1-1.5.2-.2,0-.4-.2-.6-.2-.3,0-.6.2-.7.4h0c-.1-.4-.4-.6-.8-.6-.3,0-.6.1-.8.4h0c0,.2,0,.3-.1.3-.6.2-1,.7-1.2,1.1h0c-.1.3-.2.3-.2.4,0,0-.1,0-.3-.3,0-.1-.3-.4-.7-.5-.2,0-.5,0-.8.3-.2.2-.4.3-.4.3-.2,0-.6-1.1-.6-1.9,0-.2,0-.7-.4-1-.3-.2-.6-.2-.9,0-.2-.3-.4-.4-.7-.5-.6-.1-1.1.3-1.5.7,0,0-.1.1-.2.1l-.4.2c-.6.4-1.2.8-1.8.9,0,0,0,0,0,0-.3-.1-.7-.2-1.2.1-.1,0-.3.2-.5.3-.7.5-1.3.9-1.7,1.1-.2.1-.4,0-.5-.2,0-.2-.2-.3-.4-.4-.5-.3-1,0-1.1.2l-.2.2c-1.1.8-2.3,1.6-3.5,2.1,0,0,0-.2-.1-.3l-.4-.6-.6.4c-.6.4-1.1.8-1.7,1.1-1,.7-1.9,1.4-3.1,1.8,0,0,0,0,0,0,0-.2,0-.6,0-.7h0c0-.4-.2-.7-.5-.9-.3-.2-.7-.1-1,0-.3.2-.6.5-.9.7-.6.5-1,.9-1.7,1.1,0,0,0,0,0-.1,0-.2-.1-.3-.2-.5,0-.2-.4-.3-.5-.1-.1.1-.3.2-.4.3-.3.2-.6.5-.9.7-.5.4-1.1.8-1.6,1.1,0-.3-.2-.5-.4-.7-.3-.2-.7-.2-1,0l-.4.2c-.9.4-1.9.9-2.8,1.5,0,0,0,0,0,0,0-.2.2-.4.3-.6,0,0,0,0,0,0,0-.4.3-.7.3-1.1,0-.5-.5-.5-.8-.3l-.6.4s0,0,0,0c-.1,0-.3.3-.6.5-1.3,1.1-2.2,1.8-2.7,2.1,0-.1.2-.3.3-.5.2-.4.2-.8-.1-1.1-.3-.3-.8-.3-1.2,0-.9.9-1.9,1.5-3,2.1-.5.3-1,.6-1.6,1-.3.2-.5.3-.8.4.3-.9.9-1.6,1.6-2.3,2.4-2.6,5.2-5,7.9-7.3,1-.9,2.1-1.8,3.2-2.7,7-6.1,14.2-11.6,22.1-16.9,6.8-4.5,13.6-7,20.3-7.3,2.1-.1,6,0,7.7,2,.8,1,1.1,2.7.8,4.4-.8-.1-1.5,1-1.5,1-.4-.2-.9-.4-1.4-.3-.8.1-1.2.9-1,1.7h0c0,.2,0,.3,0,.4,0,0,0,0-.1.1,0,0,0,0-.1,0,0,0-.1,0-.2.1-.1,0-.2.2-.3.3-.2.2-.4.3-.6.5-.8.9-1.1,1.9-.7,3.1,0,0,0,.1,0,.2.4,1.1.3-.7,1.2-1.2.8-.4,1.6-.5,2.1-.4-.3.3-.7.6-1,.9-1,1.2-1.6,2.7-1.6,4.3,0,0-.1,0-.2,0h0s0,0,0,0c-1.3.3-2.5,1.5-2.7,2.8v.4c0,0,.3,0,.3,0,.6,0,1.1-.3,1.5-.6-.4,1.4-.3,3,.2,4.3-.9.8-1.6,2-1.8,3.1ZM329.4,69.2c0,.2,0,.3-.1.5-.2.6-.6,1.2-.9,1.6,0,0,0,0-.1,0-.1-1.3.4-2.8,1.3-3.8,0,.5-.1,1-.1,1.5,0,0,0,.1,0,.2ZM329.3,61.7c-.3.3-.7.6-1.1.7.3-.9,1.1-1.6,1.9-1.9,0,0,0,0,0,0-.1.2-.2.4-.3.6-.1.2-.3.4-.5.6ZM329.9,62.5c.1-.4.2-.8.4-1.1,0,0,.1-.2.2-.3,0,0,0,.1,0,.2,0,.2.1.4.2.7.2.7.2,1.4.2,2.1,0,.9-.3,1.7-.6,2.3l-.2.2h0c-.5-1.3-.6-2.8-.2-4.1ZM329.9,69.2c.1-.6.2-1.1.2-1.7h0c0,0,.1.1.2.2,0,.2.2.5.3.7.1.3.3.6.5.8.1.3.2.6.3.8.2.9.2,1.8,0,2.5h-.3c-.6-1-1-2.2-1.1-3.4ZM330.5,73.5c-.1.5-.1,1-.2,1.4,0,.3-.1.5-.2.7-.3.7-.7,1.3-1.1,1.7-.1-1.4.5-2.8,1.5-3.9,0,0,0,0,0,0ZM331.6,82.1c-.2.7-.6,1.3-1,1.8-.2-1.4.2-2.9,1.1-4,.1.7,0,1.6-.2,2.2ZM332.2,79.2s0,0,0,0v-.2c-.1,0-.2,0-.2,0-.7-1-1.1-2.3-1.1-3.6,0,0,0-.1,0-.2,0-.4.2-.9.2-1.3.6.8,1,1.7,1.2,2.6.2,1,.2,2,0,2.8ZM332.9,84.1c-.5-1.1-.6-2.4-.4-3.8.6.7,1.1,1.7,1.3,2.6.2.7.2,1.3.2,2h0c0,.1,0,.5,0,.5,0,0,0,0,0,0,0,0,0,.2,0,.3-.4-.4-.7-.9-1-1.6ZM333.5,87.6c.1-.3.3-.7.5-.9,0,.3,0,.5.1.8,0,.5,0,.9,0,1.4-.2.8-.4,1.4-.8,1.9-.3-1-.2-2.1.3-3.1ZM299.9,82.9c-.4.2-.9.4-1.4.6-1.7.8-3.6,1.7-6.1,1-1.8-.6-2.9-1.4-3.4-1.9l3.2-.3-.8-2.4c.6.4,1.4.9,2,1.1h.2c.8.3,1.7.6,4.1-.4,1.3-.5,2.3-.7,3.3-.6,1.1.1,1.9.8,2.7,1.5.5.5,1.1,1,1.5,1.5-1.5-.8-3.4-.9-5.2-.3ZM302.1,83.1c1.2,0,2.4.3,3.4,1,.5,1.8-.6,3.5-1,4-2.9-.1-4.3-1-4.8-1.6.7-.5,2.1-1.7,2.4-3.4ZM303.4,95.1c-2.5-1.6-3.5-6.1-3.8-8,1.4,1.1,5.7,2.7,15.2-.2h0c2.9-.9,5.8-1.4,8.6-1.4h0c3.7,0,6.9.8,9.5,1.9-.5,1.3-.6,2.7,0,4l.2.4.3-.3c.6-.5,1-1.4,1.3-2.5.5,1.1,1.2,2,2.1,2.6-.5.5-1,1.3-1.3,2.2,0,0,0,.2,0,.3-3.3-1.1-9.5-2.4-17.6-.8-1.2.3-2.2.6-3.3.9,0,0,0,0,0,0h0c0,0-.2,0-.3,0-4.9,1.4-8.5,2.4-10.8.9ZM307.2,104c-.2,4.8,0,9.4.3,14l-3.8-2.5c-.7-4.5-1.1-9.3-1.3-14.7l4.8,3.1ZM307.7,119.9c1.2,12.3,4.5,23.6,9.7,33.5,2.2,4.1,4.7,7.9,7.4,11.3-.5.6-1.3,1.5-2.4,2.6-1.6-1.6-3-3.2-4.5-4.9-2.7-3.2-5.1-6.8-7.1-10.4-2.1-3.7-3.7-7.6-5-11.7-2.6-7.8-3.7-16-4-24.2l5.9,3.9ZM285.8,90l10.2,6.6c.1,5.3.4,10,.9,14.3l-11.6-7.6c0-4.3.2-8.8.5-13.4ZM294.9,170s-5-4.9-9-15.7c-3.7-9.8-7.4-26.7-4.2-51.5l12.1,7.9c0,1.5,0,2.9.1,4.4.3,8.5,1.4,16.9,4.1,25,1.3,4,3,7.9,5,11.7,2,3.7,4.5,7.2,7.1,10.4,2.5,3,5.2,5.7,8,8.3-5.2,3.5-13,6-22.1.7-.6-.6-1-1-1.2-1.3ZM297.8,172.8c3.2,1.5,6.2,2.1,8.9,2.1,9.5,0,16.3-7.2,18.5-9.8,2.7,3.3,5.6,6.2,8.5,8.6-17.2,11.6-30.3,3.9-35.9-.9ZM327.6,190.4c1.2-1.9,5.8-9.2,7.6-15.5,1.2.9,2.4,1.7,3.5,2.4l-1.9,14.6c-1-.5-3.9-1.7-9.3-1.6ZM333.6,191.5c1.8.4,2.8.9,3.2,1.1,0,0,0,.1,0,.2-.2.2-.6.6-2.1.7-.7,0-1.3.3-1.6.6l.6-2.6ZM338.3,199.3c-.2.1-.3.3-.4.4v-2.5c.2,0,.4.2.5.3.4.3.4.6.4.6h0c0,.2,0,.6-.6,1.1ZM338.9,197.2c-.6-.6-1.6-.7-2.5-.6-.9,0-1.7.3-2.6.2-.3,0-.7-.1-.9-.3-.4-.4-.3-1.1,0-1.5.3-.4.9-.6,1.4-.8.5-.1,1.1-.1,1.6-.3.5-.2,1-.5,1.3-1,0-.2.1-.5.2-.7l.8-6.2c.1-1,.3-2.1.4-3.1l.4-3.1c0-.5.1-1,.2-1.5,0-.1,0-.3,0-.4,0,0,0-.1,0-.2,0,0,0,0,.1,0,.2.1.4.3.7.4.1,0,.2.1.3.2-.5,6.3-1,12.6-1.5,18.9ZM347.9,199.7c-.1-.2-.2-.3-.4-.4-.4-.4-.5-.7-.6-1v-.2s0-.3.5-.6c.1-.1.3-.2.6-.3v2.5ZM353,196.2c0,0,0,0-.1.1-.3.3-.8.4-1.2.4-.8,0-1.6-.2-2.5-.2-.8,0-1.7,0-2.3.6-.5-6-.9-12-1.4-18,0-.3,0-.5,0-.7.2-.4.7-.6,1.1-.7.6,4.5,1.1,9.1,1.7,13.6,0,.8.2,1.6.8,2.1.7.6,1.7.5,2.6.7.8.2,1.9,1.1,1.3,2ZM352.8,194.1c-.4-.3-.9-.5-1.6-.6-1.4-.1-1.9-.5-2.1-.7,0,0,0-.2,0-.2.3-.2,1.4-.7,3.2-1.1l.6,2.6ZM358.2,190.4c-5.4,0-8.3,1.1-9.3,1.6l-1.9-14.7c1.1-.7,2.3-1.5,3.5-2.4,1.9,6.3,6.4,13.6,7.6,15.5ZM342.9,177.1c-3.1-1.5-6.6-3.9-10.3-7.3.1-.3.1-.8.1-1.1,0-.6,0-1.1.4-1.3,0,0,.1,0,.2,0,.1,0,.3-.1.4-.2.1-.1.2-.3.3-.4,0,0,0-.2.1-.2.2-.2.5-.2.8-.2.4,0,.9,0,1.2-.4.3-.3.4-.8.3-1.2,0,0,0-.1-.1-.2,0,0,0,0,0-.1,0-.2,0-.4.1-.6.3-.4,1-.6,1.5-.6.2,0,.4,0,.6,0,.5,0,1.1.2,1.6-.2.2-.1.3-.3.4-.5.1-.2.3-.4.4-.4.1,0,.3,0,.4,0,.3,0,.7,0,.9-.3h0c0-.2.1-.3.3-.2l3.3.2c.2,0,.4,0,.5.1,0,0,.2.2.3.3.1.1.2.3.4.4.4.2.9.3,1.4,0,.1,0,.3-.1.4-.2.2-.1.4-.2.7-.3.4-.1,1,.1,1.3.5.2.2.2.4,0,.6,0,0,0,0-.1,0-.1,0-.3.2-.4.4-.1.4.2.7.6.8h.1c.1,0,.3.1.3.2.1.3,0,.7-.4,1.2-.2.3-.4.7-.5,1h0s0,0,0,0c0,.4.5.6.7.6.3,0,.9.3,1,.8,0,0,0,.2,0,.2,0,.2,0,.3,0,.5,0,.1.1.2.2.3,0,0,0,.1.1.2,0,.3.1.5.3.7-3.5,3.2-6.9,5.5-9.9,6.9ZM352.1,173.7c2.8-2.3,5.7-5.2,8.6-8.6,2.1,2.6,8.9,9.8,18.5,9.8s5.7-.6,8.9-2.1c-5.7,4.8-18.8,12.5-36,.9ZM399.9,154.4c-4.1,10.8-8.9,15.5-8.9,15.6-.2.2-.6.7-1.3,1.4-9.1,5.2-16.8,2.8-22-.7,2.9-2.6,5.5-5.3,8-8.3,2.7-3.2,5.1-6.8,7.1-10.4,2.1-3.7,3.7-7.6,5-11.7,2.6-8.1,3.7-16.5,4.1-25,0-1.5,0-3,.1-4.5l12.1-7.9c3.2,24.8-.5,41.7-4.2,51.5ZM409.6,101.5l-3.6-.8.7-3.6,7.1-1.5-4.3,5.9Z"/>
      <path class="cls-1" d="M364.3,89.7c.4,0,.8,0,1.2,0,.2,0,.4,0,.5.1.2,0,.2.3.2.5,0,.2,0,.4,0,.6,0,.1,0,.2,0,.3h0c.2.1.4.2.6.2h0c0-.1-.1-.2-.1-.3,0,0,0-.2,0-.3,0-.2,0-.3,0-.5,0-.2,0-.4,0-.5,0,0-.2-.2-.3-.3.2,0,.3-.2.4-.3.1-.1.2-.3.2-.5,0-.4,0-.7-.4-.9-.2,0-.4-.2-.7-.2-.6,0-1.2-.1-1.8-.1,0,1.2-.2,2.4-.2,3.5.2,0,.3,0,.5,0,0-.5,0-1,.1-1.5ZM364.4,88.1c.4,0,.9,0,1.3.1.2,0,.3,0,.4.1.2.1.3.3.2.5,0,.2-.1.4-.3.5-.2,0-.3.1-.6,0-.4,0-.8,0-1.2,0,0-.4,0-.8,0-1.2Z"/>
      <path class="cls-1" d="M370.3,91.2c.2-.3.4-.6.4-1,.1-.5,0-.9-.1-1.2-.2-.4-.6-.6-1.1-.7-.5,0-1.1-.2-1.6-.2-.2,1.2-.4,2.3-.5,3.5.5,0,1,.1,1.5.2.6.1,1.1,0,1.5-.5ZM367.9,91.2c.1-.9.3-1.8.4-2.7.3,0,.6,0,.9.1.4,0,.7.2.9.5.1.3.2.6,0,1.1,0,.1,0,.2-.1.4,0,.2-.2.4-.3.5-.2.1-.3.2-.5.3-.1,0-.3,0-.4,0-.3,0-.6,0-.9-.1Z"/>
      <path class="cls-1" d="M373.8,92.4c-.7-.2-1.4-.4-2.2-.6,0-.4.2-.8.3-1.2.7.2,1.4.3,2,.5,0-.1,0-.3.1-.4-.7-.2-1.4-.4-2-.5,0-.3.2-.7.3-1,.8.2,1.5.4,2.3.6,0-.1,0-.3.1-.4-.9-.3-1.9-.5-2.8-.7-.3,1.1-.6,2.3-.8,3.5.9.2,1.8.4,2.6.7,0-.1,0-.3.1-.4Z"/>
      <path class="cls-1" d="M374.7,93.2c.3-.9.6-1.8.9-2.7.3,1.1.6,2.2.9,3.3.2,0,.3.1.5.2.4-1.1.9-2.2,1.3-3.3-.2,0-.3-.1-.5-.2-.3.9-.7,1.8-1,2.7-.3-1.1-.5-2.2-.9-3.3-.2,0-.4-.1-.6-.2-.4,1.1-.7,2.3-1.1,3.4.2,0,.3,0,.5.1Z"/>
      <path class="cls-1" d="M355.9,91.4c.2,0,.3,0,.5,0,0-.5,0-.9-.1-1.4.4-.8.9-1.5,1.3-2.2-.2,0-.4,0-.6,0-.3.6-.7,1.2-1,1.8-.4-.5-.9-1-1.3-1.6-.2,0-.4,0-.6,0,.6.6,1.2,1.3,1.7,1.9,0,.5.1.9.2,1.4Z"/>
      <path class="cls-1" d="M361.2,91.2c.6,0,1.1-.2,1.4-.6.3-.3.5-.8.5-1.3,0-.5,0-.9-.3-1.2-.3-.4-.8-.6-1.5-.6-.7,0-1.2.2-1.5.7-.3.4-.4.8-.4,1.2,0,.5.2,1,.5,1.3.3.4.8.5,1.4.5ZM360.3,88.3c.3-.3.6-.4,1-.4.4,0,.8.1,1,.4.2.3.3.6.3,1,0,.4-.1.7-.3,1-.2.3-.5.4-1,.4-.5,0-.8-.1-1-.4-.2-.3-.3-.6-.3-1,0-.5.1-.9.4-1.1Z"/>
      <path class="cls-1" d="M306,94c-.4-1-.8-2-1.1-3-.2,0-.3.1-.5.2.5,1.1.9,2.3,1.3,3.4.8-.3,1.5-.5,2.3-.8,0-.1,0-.3-.1-.4-.6.2-1.2.4-1.8.6Z"/>
      <path class="cls-1" d="M307.5,90.3c.4,1.2.8,2.3,1.1,3.5.2,0,.3,0,.5-.1-.3-1.2-.7-2.3-1.1-3.5-.2,0-.4.1-.5.2Z"/>
      <path class="cls-1" d="M312.1,91c-.1,0-.3-.1-.5-.1.1,0,.2-.2.3-.3.1-.2.1-.4,0-.6,0-.2-.1-.4-.3-.5-.3-.2-.6-.3-1.1-.2-.6.1-1.1.3-1.7.4.4,1.2.7,2.3,1,3.5.5-.1,1-.3,1.6-.4.5-.1.8-.3,1-.6.1-.2.1-.4,0-.7,0-.3-.2-.5-.4-.6ZM309.8,91.1c-.1-.4-.2-.7-.3-1.1.3,0,.6-.2,1-.2.2,0,.4,0,.5,0,.2,0,.4.2.4.4,0,.2,0,.4-.2.5-.1,0-.3.2-.5.2-.3,0-.6.1-.9.2ZM312,92.1c0,.2-.3.3-.6.4-.4,0-.7.2-1.1.3-.1-.4-.2-.8-.3-1.2.3,0,.7-.2,1-.2.2,0,.4,0,.5,0,.3,0,.4.2.5.5,0,.2,0,.3,0,.4Z"/>
      <path class="cls-1" d="M316.1,91.4c-.8.1-1.6.2-2.3.4,0-.4-.2-.8-.2-1.2.7-.1,1.4-.2,2.2-.3,0-.1,0-.3,0-.4-.7,0-1.5.2-2.2.3,0-.4-.2-.7-.2-1.1.8-.1,1.6-.3,2.4-.4,0-.1,0-.3,0-.4-1,.1-2,.3-3,.5.3,1.2.5,2.4.8,3.6.9-.2,1.9-.3,2.8-.4,0-.1,0-.3,0-.4Z"/>
      <path class="cls-1" d="M317.7,91.6c0-.5-.1-1-.2-1.6.4,0,.8,0,1.2-.1.2,0,.4,0,.5,0,.2,0,.3.2.3.5,0,.2,0,.4,0,.6,0,.1,0,.2,0,.3h0c.2.1.4,0,.6,0h0c0-.1-.2-.2-.2-.3,0,0,0-.2,0-.3,0-.2,0-.3,0-.5,0-.2,0-.4-.2-.5,0,0-.2-.2-.4-.2.2,0,.3-.2.4-.4,0-.1.1-.3.1-.6,0-.4-.3-.7-.7-.8-.2,0-.5,0-.8,0-.6,0-1.3.1-1.9.2.2,1.2.4,2.4.5,3.6.2,0,.3,0,.5,0ZM318.6,88.2c.2,0,.3,0,.5,0,.2,0,.3.3.4.5,0,.2,0,.4-.2.5-.1.1-.3.2-.6.2-.4,0-.8,0-1.3.1,0-.4-.1-.8-.2-1.2.4,0,.9,0,1.4-.1Z"/>
      <path class="cls-1" d="M321.6,88.1c0,1.1.1,2.2.1,3.2.2,0,.4,0,.5,0,0-1.1,0-2.2-.1-3.2.5,0,.9,0,1.4,0,0-.1,0-.3,0-.4-1.1,0-2.3,0-3.4,0,0,.1,0,.3,0,.4.5,0,.9,0,1.4,0Z"/>
      <path class="cls-1" d="M323.8,91.3c.1-.4.3-.7.4-1.1.5,0,1.1,0,1.6,0,.1.4.2.7.4,1.1.2,0,.4,0,.6,0-.4-1.3-.9-2.5-1.4-3.8-.2,0-.4,0-.6,0-.5,1.2-1,2.4-1.5,3.6.2,0,.4,0,.5,0ZM325.1,88.2c.2.6.4,1.1.6,1.7-.4,0-.8,0-1.3,0,.2-.5.5-1.1.7-1.6Z"/>
      <path class="cls-1" d="M330.5,91c.2-.3.3-.6.4-1,0-.5,0-.9-.3-1.3-.3-.4-.7-.6-1.3-.7-.6,0-1.2-.1-1.7-.2,0,1.2-.1,2.4-.2,3.7.5,0,1.1.1,1.6.2.7,0,1.2-.1,1.5-.6ZM327.9,91.1c0-.9.1-1.9.2-2.8.3,0,.7,0,1,.1.5,0,.8.2,1,.5.2.3.3.6.2,1.1,0,.1,0,.2,0,.4,0,.2-.2.4-.3.5-.2.2-.3.3-.6.3-.1,0-.3,0-.5,0-.3,0-.6,0-1-.1Z"/>
      <path class="cls-1" d="M347,155.1h0s0-.3,0-.3h-.5v-.9h1v-2.4h0s-.8,0-.8,0h-.2s0-.7,0-.7c0-.2,0-.3-.2-.4-.2,0-.3,0-.5,0-.2,0-.2.3-.2.4v.7h-.8q-.3,0-.7,0h-.2v-.7c0-.2,0-.3-.2-.4-.2,0-.4,0-.5,0-.1,0-.2.3-.2.4v.7h-.2c-.4,0-.7,0-.7,0h-.8v-.7c0-.2,0-.3-.2-.4-.2,0-.4,0-.5,0-.1,0-.2.3-.2.4v.7h-1v2.4h1v.9h-.7v.3h0s-.7-.8-.7-.8h-2.5l1.1,1.7,1.4.9h4.4s0,0,0,0h0s0,0,0,0h4.4s1.4-1,1.4-1l1.1-1.7h-2.5l-.7.8ZM345.1,152h1.7v1.2h-1.7v-1.2ZM345.4,153.8v.9h-.7v.4h-.6s0-.4,0-.4h-.4v-.9h1.7ZM342.4,152h.2c.4,0,.6-.1.7-.2,0,0,.3.2.7.2h.2v1.2h-1.7v-1.2ZM342.7,153.8v.9h-.6v.4h-.6v-.4h-.5v-.9h1.7ZM339.6,153.3v-1.2h1.7v1.2h-1.7ZM349.1,154.8l-.5.8-1.1.7h-4.3s-4.3,0-4.3,0l-1.1-.7-.5-.8h1.2l.7.8h.9s0-.3,0-.3h1v.4h1.7s0-.4,0-.4h.9v.4h1.7v-.4h1v.3h.9s.7-.9.7-.9h1.2Z"/>
      <path class="cls-1" d="M347,170.9h0s0-.3,0-.3h-.5v-.9h1v-2.4h0s-.8,0-.8,0h-.2s0-.7,0-.7c0-.2,0-.3-.2-.4-.2,0-.3,0-.5,0-.2,0-.2.3-.2.4v.7h-.8q-.3,0-.7,0h-.2v-.7c0-.2,0-.3-.2-.4-.2,0-.4,0-.5,0-.1,0-.2.3-.2.4v.7h-.2c-.4,0-.7,0-.7,0h-.8v-.7c0-.2,0-.3-.2-.4-.2,0-.4,0-.5,0-.1,0-.2.3-.2.4v.7h-1v2.4h1v.9h-.7v.3h0s-.7-.8-.7-.8h-2.5l1.1,1.7,1.4.9h4.4s0,0,0,0h0s0,0,0,0h4.4s1.4-1,1.4-1l1.1-1.7h-2.5l-.7.8ZM345.1,167.9h1.7v1.2h-1.7v-1.2ZM345.4,169.7v.9h-.7v.4h-.6s0-.4,0-.4h-.4v-.9h1.7ZM342.4,167.9h.2c.4,0,.6-.1.7-.2,0,0,.3.2.7.2h.2v1.2h-1.7v-1.2ZM342.7,169.7v.9h-.6v.4h-.6v-.4h-.5v-.9h1.7ZM339.6,169.1v-1.2h1.7v1.2h-1.7ZM349.1,170.6l-.5.8-1.1.7h-4.3s-4.3,0-4.3,0l-1.1-.7-.5-.8h1.2l.7.8h.9s0-.3,0-.3h1v.4h1.7s0-.4,0-.4h.9v.4h1.7v-.4h1v.3h.9s.7-.9.7-.9h1.2Z"/>
      <path class="cls-1" d="M334,85.5s0,0,0,0c0,0,0,0,0,0Z"/>
    </g>
    <g>
      <path class="cls-1" d="M197.4,275.9c-3.6-2.1-6.4-5-8.4-8.9-1.9-3.8-2.9-8.3-2.9-13.4s1-9.6,2.9-13.4c1.9-3.8,4.7-6.8,8.4-8.8,3.6-2.1,7.9-3.1,12.7-3.1s6.5.5,9.4,1.5c2.9,1,5.4,2.5,7.4,4.4l-3,6.6c-2.2-1.8-4.5-3.1-6.7-3.9-2.2-.8-4.5-1.2-7-1.2-4.8,0-8.5,1.5-11.1,4.6-2.6,3.1-3.9,7.5-3.9,13.3s1.3,10.3,3.9,13.4c2.6,3.1,6.3,4.6,11.1,4.6s4.8-.4,7-1.2c2.2-.8,4.4-2.1,6.7-3.9l3,6.6c-2,1.9-4.5,3.3-7.4,4.4s-6.1,1.5-9.4,1.5c-4.9,0-9.1-1-12.7-3.1Z"/>
      <path class="cls-1" d="M240.2,276.8c-2.6-1.5-4.7-3.5-6.1-6.3-1.5-2.7-2.2-5.9-2.2-9.5s.7-6.8,2.2-9.4c1.5-2.7,3.5-4.8,6.1-6.2,2.6-1.5,5.7-2.2,9.2-2.2s6.6.7,9.2,2.2c2.6,1.5,4.7,3.5,6.1,6.2,1.4,2.7,2.1,5.8,2.1,9.4s-.7,6.8-2.1,9.5c-1.4,2.7-3.5,4.8-6.1,6.3-2.6,1.5-5.7,2.2-9.2,2.2s-6.6-.7-9.2-2.2ZM255.9,269.4c1.5-1.9,2.2-4.6,2.2-8.3s-.7-6.4-2.2-8.3c-1.5-1.9-3.7-2.8-6.5-2.8s-5,.9-6.5,2.8c-1.5,1.9-2.3,4.6-2.3,8.3s.7,6.4,2.2,8.3c1.5,1.9,3.7,2.8,6.5,2.8s5-.9,6.5-2.8Z"/>
      <path class="cls-1" d="M323.7,246.7c1.9,2.3,2.9,5.9,2.9,10.6v21.1h-8.8v-20.7c0-2.6-.4-4.5-1.3-5.7-.9-1.2-2.3-1.8-4.3-1.8s-4.2.8-5.5,2.4c-1.3,1.6-2,3.8-2,6.7v19.2h-8.8v-20.7c0-2.6-.4-4.5-1.3-5.7-.9-1.2-2.3-1.8-4.3-1.8s-4.1.8-5.4,2.4c-1.3,1.6-2,3.8-2,6.7v19.2h-8.8v-34.3h8.6v4.8c1-1.9,2.5-3.3,4.3-4.2s3.9-1.4,6.3-1.4c5.2,0,8.6,2.2,10.3,6.5,1.1-2,2.6-3.6,4.6-4.7,2-1.1,4.3-1.7,6.7-1.7,3.9,0,6.8,1.2,8.7,3.5Z"/>
      <path class="cls-1" d="M365.6,262.8h-23.4c.3,3.2,1.2,5.5,2.9,7.1,1.6,1.5,4,2.3,7,2.3s7.3-1.2,10.4-3.7l2.5,6c-1.6,1.3-3.6,2.4-6,3.2-2.4.8-4.8,1.2-7.3,1.2-5.6,0-10.1-1.6-13.3-4.8-3.3-3.2-4.9-7.5-4.9-13.1s.7-6.6,2.1-9.3c1.4-2.7,3.4-4.8,5.9-6.3,2.6-1.5,5.4-2.2,8.7-2.2,4.7,0,8.5,1.5,11.2,4.6,2.7,3,4.1,7.2,4.1,12.6v2.5ZM344.9,251.7c-1.4,1.5-2.3,3.7-2.6,6.5h15.9c0-2.9-.8-5-2.1-6.5-1.3-1.5-3.1-2.2-5.5-2.2s-4.2.7-5.7,2.2Z"/>
      <path class="cls-1" d="M395.4,250.6l-5.1.5c-5.8.6-8.7,3.6-8.7,8.8v18.5h-8.8v-34.3h8.4v6c1.8-4.1,5.5-6.4,11-6.7l2.7-.2.6,7.4Z"/>
      <path class="cls-1" d="M405.3,276.8c-2.6-1.5-4.7-3.5-6.1-6.2-1.4-2.7-2.1-5.8-2.1-9.3s.7-6.7,2.2-9.4c1.5-2.7,3.6-4.9,6.3-6.4,2.7-1.5,5.9-2.2,9.4-2.2s4.8.4,7.1,1.2c2.3.8,4.2,1.8,5.6,3.1l-2.5,6.2c-1.5-1.2-3-2.1-4.6-2.7-1.6-.6-3.2-.9-4.8-.9-3,0-5.4.9-7.1,2.8-1.7,1.9-2.5,4.6-2.5,8.2s.8,6.2,2.5,8.1c1.7,1.9,4,2.8,7.1,2.8s3.2-.3,4.8-.9c1.6-.6,3.1-1.5,4.6-2.7l2.5,6.1c-1.5,1.4-3.4,2.4-5.8,3.2-2.3.8-4.8,1.2-7.3,1.2-3.6,0-6.7-.7-9.4-2.2Z"/>
      <path class="cls-1" d="M442.5,228.1v8.6h-9.7v-8.6h9.7ZM433.3,244.1h8.8v34.3h-8.8v-34.3Z"/>
      <path class="cls-1" d="M457.5,276.8c-2.6-1.5-4.7-3.5-6.1-6.3-1.5-2.7-2.2-5.9-2.2-9.5s.7-6.8,2.2-9.4c1.5-2.7,3.5-4.8,6.1-6.2,2.6-1.5,5.7-2.2,9.2-2.2s6.6.7,9.2,2.2c2.6,1.5,4.7,3.5,6.1,6.2,1.4,2.7,2.1,5.8,2.1,9.4s-.7,6.8-2.1,9.5c-1.4,2.7-3.5,4.8-6.1,6.3-2.6,1.5-5.7,2.2-9.2,2.2s-6.6-.7-9.2-2.2ZM473.2,269.4c1.5-1.9,2.2-4.6,2.2-8.3s-.7-6.4-2.2-8.3c-1.5-1.9-3.7-2.8-6.5-2.8s-5,.9-6.5,2.8c-1.5,1.9-2.3,4.6-2.3,8.3s.7,6.4,2.2,8.3c1.5,1.9,3.7,2.8,6.5,2.8s5-.9,6.5-2.8Z"/>
      <path class="cls-1" d="M499.6,268.7v6.4c0,2.4-.4,4.6-1.3,6.6-.8,2-2.3,4-4.3,6l-3.6-2.8c2.2-2.3,3.5-4.5,3.8-6.5h-4.5v-9.7h9.8Z"/>
      <path class="cls-1" d="M38.3,299.2h9.1v49.5h-9.1v-49.5Z"/>
      <path class="cls-1" d="M86.4,317c2,2.3,3,5.9,3,10.6v21.1h-8.8v-20.6c0-2.7-.5-4.6-1.5-5.8-1-1.2-2.6-1.8-4.7-1.8s-4.6.8-6.1,2.4c-1.5,1.6-2.3,3.7-2.3,6.4v19.5h-8.8v-34.3h8.6v5.1c1.2-1.9,2.7-3.4,4.7-4.4,2-1,4.2-1.5,6.7-1.5,4.1,0,7.2,1.2,9.2,3.5Z"/>
      <path class="cls-1" d="M131.5,299.2v49.5h-8.7v-5.5c-1,1.9-2.5,3.4-4.5,4.5-1.9,1.1-4.2,1.6-6.6,1.6s-5.6-.7-7.9-2.2c-2.3-1.5-4.1-3.6-5.4-6.4-1.3-2.7-1.9-5.9-1.9-9.4s.6-6.7,1.9-9.3c1.3-2.7,3.1-4.7,5.4-6.2,2.3-1.5,4.9-2.2,7.9-2.2s4.7.5,6.6,1.5c1.9,1,3.4,2.5,4.4,4.4v-20.2h8.8ZM120.5,339.5c1.5-1.9,2.3-4.7,2.3-8.2s-.8-6.3-2.3-8.2c-1.5-1.9-3.7-2.8-6.4-2.8s-5,.9-6.5,2.8c-1.5,1.9-2.3,4.6-2.3,8.1s.8,6.3,2.3,8.3,3.7,2.9,6.5,2.9,5-1,6.5-2.9Z"/>
      <path class="cls-1" d="M172.1,314.3v34.3h-8.6v-5.3c-1.1,1.9-2.5,3.3-4.4,4.3-1.8,1-3.9,1.5-6.2,1.5-8.4,0-12.6-4.7-12.6-14.2v-20.7h8.8v20.8c0,2.4.5,4.2,1.5,5.4,1,1.2,2.5,1.8,4.6,1.8s4.4-.8,5.9-2.4c1.5-1.6,2.2-3.8,2.2-6.4v-19.1h8.8Z"/>
      <path class="cls-1" d="M185.5,348.1c-2.6-.7-4.7-1.8-6.5-3.2l2.5-6.1c3.7,2.7,7.8,4,12.6,4s3.5-.3,4.6-1c1.1-.7,1.6-1.6,1.6-2.8s-.4-1.8-1.1-2.4c-.7-.6-2-1.1-3.9-1.5l-5.6-1.3c-3.2-.7-5.5-1.8-7.1-3.4-1.5-1.6-2.3-3.7-2.3-6.2s.6-4,1.8-5.6c1.2-1.6,2.9-2.9,5-3.8,2.1-.9,4.6-1.3,7.4-1.3s4.8.4,7.1,1.1c2.3.7,4.3,1.8,6,3.2l-2.5,6c-3.6-2.6-7.1-3.9-10.7-3.9s-3.4.4-4.5,1.1c-1.1.7-1.6,1.7-1.6,3s.3,1.7,1,2.3c.7.6,1.8,1.1,3.3,1.4l5.8,1.3c3.4.7,5.9,1.9,7.5,3.5,1.6,1.6,2.4,3.7,2.4,6.4s-1.3,5.7-3.9,7.6c-2.6,1.9-6.1,2.8-10.5,2.8s-5.8-.4-8.4-1.1Z"/>
      <path class="cls-1" d="M235.7,342.4l-.4,6.5c-1.4.1-2.7.2-3.9.2-4.8,0-8.4-1.1-10.7-3.3-2.3-2.2-3.4-5.5-3.4-9.9v-15h-6.6v-6.6h6.6v-10.3h8.8v10.3h9.1v6.6h-9.1v14.8c0,4.6,2.1,6.9,6.4,6.9s2.1,0,3.2-.2Z"/>
      <path class="cls-1" d="M263.5,320.8l-5.1.5c-5.8.6-8.7,3.6-8.7,8.8v18.5h-8.8v-34.3h8.4v6c1.8-4.1,5.5-6.4,11-6.7l2.7-.2.6,7.4Z"/>
      <path class="cls-1" d="M277,298.4v8.6h-9.7v-8.6h9.7ZM267.8,314.3h8.8v34.3h-8.8v-34.3Z"/>
      <path class="cls-1" d="M311.1,317c2.3,2.3,3.5,5.9,3.5,10.8v20.9h-8.4v-5.3c-.8,1.8-2,3.3-3.8,4.3-1.7,1-3.7,1.5-5.9,1.5s-4.4-.5-6.3-1.4c-1.9-.9-3.3-2.2-4.4-3.9-1.1-1.6-1.6-3.5-1.6-5.5s.6-4.5,1.9-6c1.3-1.5,3.4-2.5,6.3-3.2,2.9-.7,6.9-1,12-1h1.8v-1.6c0-2.3-.5-4-1.5-5.1-1-1-2.7-1.5-5-1.5s-3.7.3-5.7.9c-2,.6-3.9,1.5-5.9,2.6l-2.5-6c1.9-1.2,4.2-2.2,7-3,2.7-.8,5.3-1.2,7.7-1.2,4.8,0,8.4,1.2,10.7,3.5ZM304,340.6c1.5-1.6,2.2-3.6,2.2-6.1v-1.5h-1.3c-3.1,0-5.6.1-7.3.4-1.7.3-3,.8-3.7,1.5-.7.7-1.1,1.7-1.1,2.9s.5,2.7,1.5,3.7c1,1,2.3,1.4,3.9,1.4,2.3,0,4.2-.8,5.7-2.4Z"/>
      <path class="cls-1" d="M375.3,314.4l-20.6,46.9h-8.8l6.3-14-14.3-32.9h9.3l9.7,24.2,10-24.2h8.6Z"/>
      <path class="cls-1" d="M411,306.6h-16.2v-7.4h41.4v7.4h-16.2v42.1h-9.1v-42.1Z"/>
      <path class="cls-1" d="M467.7,314.3v34.3h-8.6v-5.3c-1.1,1.9-2.5,3.3-4.4,4.3-1.8,1-3.9,1.5-6.2,1.5-8.4,0-12.6-4.7-12.6-14.2v-20.7h8.8v20.8c0,2.4.5,4.2,1.5,5.4,1,1.2,2.5,1.8,4.6,1.8s4.4-.8,5.9-2.4c1.5-1.6,2.2-3.8,2.2-6.4v-19.1h8.8Z"/>
      <path class="cls-1" d="M499.5,320.8l-5.1.5c-5.8.6-8.7,3.6-8.7,8.8v18.5h-8.8v-34.3h8.4v6c1.8-4.1,5.5-6.4,11-6.7l2.7-.2.6,7.4Z"/>
      <path class="cls-1" d="M512.9,298.4v8.6h-9.7v-8.6h9.7ZM503.7,314.3h8.8v34.3h-8.8v-34.3Z"/>
      <path class="cls-1" d="M525.8,348.1c-2.6-.7-4.7-1.8-6.5-3.2l2.5-6.1c3.7,2.7,7.8,4,12.6,4s3.5-.3,4.6-1c1.1-.7,1.6-1.6,1.6-2.8s-.4-1.8-1.1-2.4c-.7-.6-2-1.1-3.9-1.5l-5.6-1.3c-3.2-.7-5.5-1.8-7.1-3.4-1.5-1.6-2.3-3.7-2.3-6.2s.6-4,1.8-5.6c1.2-1.6,2.9-2.9,5-3.8,2.1-.9,4.6-1.3,7.4-1.3s4.8.4,7.1,1.1c2.3.7,4.3,1.8,6,3.2l-2.5,6c-3.6-2.6-7.1-3.9-10.7-3.9s-3.4.4-4.5,1.1c-1.1.7-1.6,1.7-1.6,3s.3,1.7,1,2.3c.7.6,1.8,1.1,3.3,1.4l5.8,1.3c3.4.7,5.9,1.9,7.5,3.5,1.6,1.6,2.4,3.7,2.4,6.4s-1.3,5.7-3.9,7.6c-2.6,1.9-6.1,2.8-10.5,2.8s-5.8-.4-8.4-1.1Z"/>
      <path class="cls-1" d="M605.2,317c1.9,2.3,2.9,5.9,2.9,10.6v21.1h-8.8v-20.7c0-2.6-.4-4.5-1.3-5.7-.9-1.2-2.3-1.8-4.3-1.8s-4.2.8-5.5,2.4c-1.3,1.6-2,3.8-2,6.7v19.2h-8.8v-20.7c0-2.6-.4-4.5-1.3-5.7-.9-1.2-2.3-1.8-4.3-1.8s-4.1.8-5.4,2.4c-1.3,1.6-2,3.8-2,6.7v19.2h-8.8v-34.3h8.6v4.8c1-1.9,2.5-3.3,4.3-4.2s3.9-1.4,6.3-1.4c5.2,0,8.6,2.2,10.3,6.5,1.1-2,2.6-3.6,4.6-4.7,2-1.1,4.3-1.7,6.7-1.7,3.9,0,6.8,1.2,8.7,3.5Z"/>
      <path class="cls-1" d="M623.4,347.1c-2.6-1.5-4.7-3.5-6.1-6.3-1.5-2.7-2.2-5.9-2.2-9.5s.7-6.8,2.2-9.4c1.5-2.7,3.5-4.8,6.1-6.2,2.6-1.5,5.7-2.2,9.2-2.2s6.6.7,9.2,2.2c2.6,1.5,4.7,3.5,6.1,6.2,1.4,2.7,2.1,5.8,2.1,9.4s-.7,6.8-2.1,9.5c-1.4,2.7-3.5,4.8-6.1,6.3-2.6,1.5-5.7,2.2-9.2,2.2s-6.6-.7-9.2-2.2ZM639.1,339.6c1.5-1.9,2.2-4.6,2.2-8.3s-.7-6.4-2.2-8.3c-1.5-1.9-3.7-2.8-6.5-2.8s-5,.9-6.5,2.8c-1.5,1.9-2.3,4.6-2.3,8.3s.7,6.4,2.2,8.3c1.5,1.9,3.7,2.8,6.5,2.8s5-.9,6.5-2.8Z"/>
    </g>
    <g>
      <rect class="cls-3" x="298.4" y="358.5" width="13.2" height="75.9" transform="translate(-91.4 701.4) rotate(-90)"/>
      <rect class="cls-6" x="355.3" y="377.5" width="13.2" height="37.9" transform="translate(-34.5 758.3) rotate(-90)"/>
      <rect class="cls-5" x="393.2" y="377.5" width="13.2" height="37.9" transform="translate(3.4 796.2) rotate(-90)"/>
    </g>
  </g>
  <line class="cls-11" x1="723.6" y1="41" x2="723.6" y2="403"/>
</svg>